<?xml version="1.0" encoding="UTF-8"?>
<!--Generator: Apple Native CoreSVG 175-->
<!DOCTYPE svg
PUBLIC "-//W3C//DTD SVG 1.1//EN"
       "http://www.w3.org/Graphics/SVG/1.1/DTD/svg11.dtd">
<svg version="1.1" xmlns="http://www.w3.org/2000/svg" xmlns:xlink="http://www.w3.org/1999/xlink" width="3300" height="2200">
 <!--glyph: "", point size: 100.0, font version: "17.1d1e1", template writer version: "65.1"-->
 <style>.hierarchical-0:secondary {fill:#4D4D4D}
.hierarchical-1:primary {fill:#212121}

.SFSymbolsPreview212121 {fill:#212121;opacity:1.0}
.SFSymbolsPreview4D4D4D {fill:#4D4D4D;opacity:1.0}
</style>
 <g id="Notes">
  <rect height="2200" id="artboard" style="fill:white;opacity:1" width="3300" x="0" y="0"/>
  <line style="fill:none;stroke:black;opacity:1;stroke-width:0.5;" x1="263" x2="3036" y1="292" y2="292"/>
  <text style="stroke:none;fill:black;font-family:sans-serif;font-size:13;font-weight:bold;" transform="matrix(1 0 0 1 263 322)">Weight/Scale Variations</text>
  <text style="stroke:none;fill:black;font-family:sans-serif;font-size:13;text-anchor:middle;" transform="matrix(1 0 0 1 559.711 322)">Ultralight</text>
  <text style="stroke:none;fill:black;font-family:sans-serif;font-size:13;text-anchor:middle;" transform="matrix(1 0 0 1 856.422 322)">Thin</text>
  <text style="stroke:none;fill:black;font-family:sans-serif;font-size:13;text-anchor:middle;" transform="matrix(1 0 0 1 1153.13 322)">Light</text>
  <text style="stroke:none;fill:black;font-family:sans-serif;font-size:13;text-anchor:middle;" transform="matrix(1 0 0 1 1449.84 322)">Regular</text>
  <text style="stroke:none;fill:black;font-family:sans-serif;font-size:13;text-anchor:middle;" transform="matrix(1 0 0 1 1746.56 322)">Medium</text>
  <text style="stroke:none;fill:black;font-family:sans-serif;font-size:13;text-anchor:middle;" transform="matrix(1 0 0 1 2043.27 322)">Semibold</text>
  <text style="stroke:none;fill:black;font-family:sans-serif;font-size:13;text-anchor:middle;" transform="matrix(1 0 0 1 2339.98 322)">Bold</text>
  <text style="stroke:none;fill:black;font-family:sans-serif;font-size:13;text-anchor:middle;" transform="matrix(1 0 0 1 2636.69 322)">Heavy</text>
  <text style="stroke:none;fill:black;font-family:sans-serif;font-size:13;text-anchor:middle;" transform="matrix(1 0 0 1 2933.4 322)">Black</text>
  <line style="fill:none;stroke:black;opacity:1;stroke-width:0.5;" x1="263" x2="3036" y1="1903" y2="1903"/>
  <g transform="matrix(1 0 0 1 263 1933)">
   <path d="M9.24805 0.830078Q10.8691 0.830078 12.2949 0.214844Q13.7207-0.400391 14.8096-1.49414Q15.8984-2.58789 16.5186-4.01367Q17.1387-5.43945 17.1387-7.05078Q17.1387-8.66211 16.5186-10.0879Q15.8984-11.5137 14.8047-12.6074Q13.7109-13.7012 12.2852-14.3164Q10.8594-14.9316 9.23828-14.9316Q7.62695-14.9316 6.20117-14.3164Q4.77539-13.7012 3.69141-12.6074Q2.60742-11.5137 1.9873-10.0879Q1.36719-8.66211 1.36719-7.05078Q1.36719-5.43945 1.9873-4.01367Q2.60742-2.58789 3.69629-1.49414Q4.78516-0.400391 6.21094 0.214844Q7.63672 0.830078 9.24805 0.830078ZM9.24805-0.654297Q7.91992-0.654297 6.7627-1.14746Q5.60547-1.64062 4.73145-2.51953Q3.85742-3.39844 3.36426-4.56055Q2.87109-5.72266 2.87109-7.05078Q2.87109-8.37891 3.35938-9.54102Q3.84766-10.7031 4.72168-11.582Q5.5957-12.4609 6.75293-12.9541Q7.91016-13.4473 9.23828-13.4473Q10.5762-13.4473 11.7334-12.9541Q12.8906-12.4609 13.7695-11.582Q14.6484-10.7031 15.1465-9.54102Q15.6445-8.37891 15.6445-7.05078Q15.6445-5.72266 15.1514-4.56055Q14.6582-3.39844 13.7842-2.51953Q12.9102-1.64062 11.748-1.14746Q10.5859-0.654297 9.24805-0.654297ZM5.6543-7.05078Q5.6543-6.72852 5.85938-6.52832Q6.06445-6.32812 6.40625-6.32812L8.51562-6.32812L8.51562-4.20898Q8.51562-3.88672 8.71094-3.67676Q8.90625-3.4668 9.23828-3.4668Q9.56055-3.4668 9.77051-3.67676Q9.98047-3.88672 9.98047-4.20898L9.98047-6.32812L12.0898-6.32812Q12.4219-6.32812 12.627-6.52832Q12.832-6.72852 12.832-7.05078Q12.832-7.38281 12.627-7.58789Q12.4219-7.79297 12.0898-7.79297L9.98047-7.79297L9.98047-9.90234Q9.98047-10.2344 9.77051-10.4443Q9.56055-10.6543 9.23828-10.6543Q8.90625-10.6543 8.71094-10.4443Q8.51562-10.2344 8.51562-9.90234L8.51562-7.79297L6.40625-7.79297Q6.06445-7.79297 5.85938-7.58789Q5.6543-7.38281 5.6543-7.05078Z"/>
  </g>
  <g transform="matrix(1 0 0 1 281.867 1933)">
   <path d="M11.709 2.91016Q13.75 2.91016 15.5518 2.12891Q17.3535 1.34766 18.7305-0.0292969Q20.1074-1.40625 20.8887-3.20801Q21.6699-5.00977 21.6699-7.05078Q21.6699-9.0918 20.8887-10.8936Q20.1074-12.6953 18.7305-14.0723Q17.3535-15.4492 15.5469-16.2305Q13.7402-17.0117 11.6992-17.0117Q9.6582-17.0117 7.85645-16.2305Q6.05469-15.4492 4.68262-14.0723Q3.31055-12.6953 2.5293-10.8936Q1.74805-9.0918 1.74805-7.05078Q1.74805-5.00977 2.5293-3.20801Q3.31055-1.40625 4.6875-0.0292969Q6.06445 1.34766 7.86621 2.12891Q9.66797 2.91016 11.709 2.91016ZM11.709 1.25Q9.98047 1.25 8.47656 0.605469Q6.97266-0.0390625 5.83496-1.17676Q4.69727-2.31445 4.05762-3.81836Q3.41797-5.32227 3.41797-7.05078Q3.41797-8.7793 4.05762-10.2832Q4.69727-11.7871 5.83008-12.9297Q6.96289-14.0723 8.4668-14.7119Q9.9707-15.3516 11.6992-15.3516Q13.4277-15.3516 14.9316-14.7119Q16.4355-14.0723 17.5781-12.9297Q18.7207-11.7871 19.3652-10.2832Q20.0098-8.7793 20.0098-7.05078Q20.0098-5.32227 19.3701-3.81836Q18.7305-2.31445 17.5928-1.17676Q16.4551-0.0390625 14.9463 0.605469Q13.4375 1.25 11.709 1.25ZM7.17773-7.05078Q7.17773-6.69922 7.41211-6.47461Q7.64648-6.25 8.01758-6.25L10.8887-6.25L10.8887-3.36914Q10.8887-2.99805 11.1133-2.76855Q11.3379-2.53906 11.6895-2.53906Q12.0605-2.53906 12.29-2.76855Q12.5195-2.99805 12.5195-3.36914L12.5195-6.25L15.4004-6.25Q15.7715-6.25 16.001-6.47461Q16.2305-6.69922 16.2305-7.05078Q16.2305-7.42188 16.001-7.65137Q15.7715-7.88086 15.4004-7.88086L12.5195-7.88086L12.5195-10.752Q12.5195-11.1328 12.29-11.3623Q12.0605-11.5918 11.6895-11.5918Q11.3379-11.5918 11.1133-11.3574Q10.8887-11.123 10.8887-10.752L10.8887-7.88086L8.01758-7.88086Q7.63672-7.88086 7.40723-7.65137Q7.17773-7.42188 7.17773-7.05078Z"/>
  </g>
  <g transform="matrix(1 0 0 1 305.646 1933)">
   <path d="M14.9707 5.66406Q17.0605 5.66406 18.96 5.01465Q20.8594 4.36523 22.4512 3.19336Q24.043 2.02148 25.2197 0.429688Q26.3965-1.16211 27.0459-3.06641Q27.6953-4.9707 27.6953-7.05078Q27.6953-9.14062 27.0459-11.04Q26.3965-12.9395 25.2197-14.5312Q24.043-16.123 22.4512-17.2998Q20.8594-18.4766 18.9551-19.126Q17.0508-19.7754 14.9609-19.7754Q12.8711-19.7754 10.9717-19.126Q9.07227-18.4766 7.48535-17.2998Q5.89844-16.123 4.72168-14.5312Q3.54492-12.9395 2.90039-11.04Q2.25586-9.14062 2.25586-7.05078Q2.25586-4.9707 2.90527-3.06641Q3.55469-1.16211 4.72656 0.429688Q5.89844 2.02148 7.49023 3.19336Q9.08203 4.36523 10.9814 5.01465Q12.8809 5.66406 14.9707 5.66406ZM14.9707 3.84766Q13.1641 3.84766 11.5283 3.2959Q9.89258 2.74414 8.53516 1.74805Q7.17773 0.751953 6.17676-0.610352Q5.17578-1.97266 4.62891-3.6084Q4.08203-5.24414 4.08203-7.05078Q4.08203-8.86719 4.62891-10.5029Q5.17578-12.1387 6.17188-13.501Q7.16797-14.8633 8.52539-15.8594Q9.88281-16.8555 11.5186-17.4023Q13.1543-17.9492 14.9609-17.9492Q16.7773-17.9492 18.4131-17.4023Q20.0488-16.8555 21.4111-15.8594Q22.7734-14.8633 23.7695-13.501Q24.7656-12.1387 25.3174-10.5029Q25.8691-8.86719 25.8691-7.05078Q25.8789-5.24414 25.332-3.6084Q24.7852-1.97266 23.7842-0.610352Q22.7832 0.751953 21.4209 1.74805Q20.0586 2.74414 18.4229 3.2959Q16.7871 3.84766 14.9707 3.84766ZM9.19922-7.05078Q9.19922-6.66992 9.45801-6.4209Q9.7168-6.17188 10.1172-6.17188L14.0625-6.17188L14.0625-2.2168Q14.0625-1.81641 14.3115-1.55762Q14.5605-1.29883 14.9512-1.29883Q15.3516-1.29883 15.6104-1.55273Q15.8691-1.80664 15.8691-2.2168L15.8691-6.17188L19.8242-6.17188Q20.2246-6.17188 20.4785-6.4209Q20.7324-6.66992 20.7324-7.05078Q20.7324-7.46094 20.4785-7.71484Q20.2246-7.96875 19.8242-7.96875L15.8691-7.96875L15.8691-11.9141Q15.8691-12.3242 15.6104-12.583Q15.3516-12.8418 14.9512-12.8418Q14.5605-12.8418 14.3115-12.583Q14.0625-12.3242 14.0625-11.9141L14.0625-7.96875L10.1172-7.96875Q9.70703-7.96875 9.45312-7.71484Q9.19922-7.46094 9.19922-7.05078Z"/>
  </g>
  <text style="stroke:none;fill:black;font-family:sans-serif;font-size:13;font-weight:bold;" transform="matrix(1 0 0 1 263 1953)">Design Variations</text>
  <text style="stroke:none;fill:black;font-family:sans-serif;font-size:13;" transform="matrix(1 0 0 1 263 1971)">Symbols are supported in up to nine weights and three scales.</text>
  <text style="stroke:none;fill:black;font-family:sans-serif;font-size:13;" transform="matrix(1 0 0 1 263 1989)">For optimal layout with text and other symbols, vertically align</text>
  <text style="stroke:none;fill:black;font-family:sans-serif;font-size:13;" transform="matrix(1 0 0 1 263 2007)">symbols with the adjacent text.</text>
  <line style="fill:none;stroke:#00AEEF;stroke-width:0.5;opacity:1.0;" x1="776" x2="776" y1="1919" y2="1933"/>
  <g transform="matrix(1 0 0 1 776 1933)">
   <path d="M3.31055 0.15625Q3.70117 0.15625 3.91602-0.00976562Q4.13086-0.175781 4.26758-0.585938L5.52734-4.0332L11.2891-4.0332L12.5488-0.585938Q12.6855-0.175781 12.9004-0.00976562Q13.1152 0.15625 13.4961 0.15625Q13.8867 0.15625 14.1162-0.0585938Q14.3457-0.273438 14.3457-0.644531Q14.3457-0.869141 14.2383-1.17188L9.6582-13.3691Q9.48242-13.8184 9.17969-14.043Q8.87695-14.2676 8.4082-14.2676Q7.5-14.2676 7.17773-13.3789L2.59766-1.16211Q2.49023-0.859375 2.49023-0.634766Q2.49023-0.263672 2.70996-0.0537109Q2.92969 0.15625 3.31055 0.15625ZM6.00586-5.51758L8.37891-12.0898L8.42773-12.0898L10.8008-5.51758Z"/>
  </g>
  <line style="fill:none;stroke:#00AEEF;stroke-width:0.5;opacity:1.0;" x1="793.197" x2="793.197" y1="1919" y2="1933"/>
  <text style="stroke:none;fill:black;font-family:sans-serif;font-size:13;font-weight:bold;" transform="matrix(1 0 0 1 776 1953)">Margins</text>
  <text style="stroke:none;fill:black;font-family:sans-serif;font-size:13;" transform="matrix(1 0 0 1 776 1971)">Leading and trailing margins on the left and right side of each symbol</text>
  <text style="stroke:none;fill:black;font-family:sans-serif;font-size:13;" transform="matrix(1 0 0 1 776 1989)">can be adjusted by modifying the x-location of the margin guidelines.</text>
  <text style="stroke:none;fill:black;font-family:sans-serif;font-size:13;" transform="matrix(1 0 0 1 776 2007)">Modifications are automatically applied proportionally to all</text>
  <text style="stroke:none;fill:black;font-family:sans-serif;font-size:13;" transform="matrix(1 0 0 1 776 2025)">scales and weights.</text>
  <g transform="matrix(1 0 0 1 1289 1933)">
   <path d="M2.8418 1.86523L4.54102 3.57422Q5.18555 4.22852 5.90332 4.17969Q6.62109 4.13086 7.31445 3.35938L18.0078-8.42773L17.041-9.4043L6.42578 2.27539Q6.16211 2.57812 5.89355 2.61719Q5.625 2.65625 5.27344 2.30469L4.10156 1.14258Q3.75 0.791016 3.79395 0.522461Q3.83789 0.253906 4.14062-0.0195312L15.6152-10.8203L14.6387-11.7871L3.04688-0.898438Q2.30469-0.214844 2.25098 0.498047Q2.19727 1.21094 2.8418 1.86523ZM9.25781-16.3281Q8.94531-16.0254 8.90625-15.6348Q8.86719-15.2441 9.04297-14.9512Q9.21875-14.6777 9.55566-14.541Q9.89258-14.4043 10.3809-14.5215Q11.4746-14.7754 12.5977-14.7314Q13.7207-14.6875 14.7949-13.9844L14.209-12.5293Q13.9551-11.9043 14.0674-11.4404Q14.1797-10.9766 14.5801-10.5664L16.875-8.25195Q17.2363-7.88086 17.5781-7.82227Q17.9199-7.76367 18.3398-7.8418L19.4043-8.03711L20.0684-7.36328L20.0293-6.80664Q20-6.43555 20.1221-6.12305Q20.2441-5.81055 20.6055-5.44922L21.3672-4.70703Q21.7285-4.3457 22.1533-4.33105Q22.5781-4.31641 22.9297-4.66797L25.8398-7.58789Q26.1914-7.93945 26.1816-8.35449Q26.1719-8.76953 25.8105-9.13086L25.0391-9.89258Q24.6875-10.2539 24.3799-10.3857Q24.0723-10.5176 23.7109-10.4883L23.1348-10.4395L22.4902-11.0742L22.7344-12.1973Q22.832-12.6172 22.6953-12.9834Q22.5586-13.3496 22.1191-13.7891L19.9219-15.9766Q18.6719-17.2168 17.2607-17.8369Q15.8496-18.457 14.4189-18.4814Q12.9883-18.5059 11.665-17.959Q10.3418-17.4121 9.25781-16.3281ZM10.752-15.957Q11.6602-16.6211 12.7002-16.9043Q13.7402-17.1875 14.8047-17.085Q15.8691-16.9824 16.8701-16.5137Q17.8711-16.0449 18.7012-15.2051L21.1328-12.793Q21.3086-12.6172 21.3525-12.4512Q21.3965-12.2852 21.3379-12.0312L21.0156-10.5469L22.5195-9.0625L23.5059-9.12109Q23.6914-9.13086 23.7891-9.09668Q23.8867-9.0625 24.0332-8.91602L24.6094-8.33984L22.168-5.89844L21.5918-6.47461Q21.4453-6.62109 21.4062-6.71875Q21.3672-6.81641 21.377-7.01172L21.4453-7.98828L19.9512-9.47266L18.4277-9.21875Q18.1836-9.16992 18.042-9.2041Q17.9004-9.23828 17.7148-9.41406L15.7129-11.416Q15.5176-11.5918 15.4932-11.7529Q15.4688-11.9141 15.5859-12.1875L16.4648-14.2773Q15.293-15.3711 13.8281-15.791Q12.3633-16.2109 10.8398-15.7617Q10.7227-15.7324 10.6885-15.8057Q10.6543-15.8789 10.752-15.957Z"/>
  </g>
  <text style="stroke:none;fill:black;font-family:sans-serif;font-size:13;font-weight:bold;" transform="matrix(1 0 0 1 1289 1953)">Exporting</text>
  <text style="stroke:none;fill:black;font-family:sans-serif;font-size:13;" transform="matrix(1 0 0 1 1289 1971)">Symbols should be outlined when exporting to ensure the</text>
  <text style="stroke:none;fill:black;font-family:sans-serif;font-size:13;" transform="matrix(1 0 0 1 1289 1989)">design is preserved when submitting to Xcode.</text>
  <text id="template-version" style="stroke:none;fill:black;font-family:sans-serif;font-size:13;text-anchor:end;" transform="matrix(1 0 0 1 3036 1933)">Template v.3.0</text>
  <text style="stroke:none;fill:black;font-family:sans-serif;font-size:13;text-anchor:end;" transform="matrix(1 0 0 1 3036 1951)">Requires Xcode 13 or greater</text>
  <text id="descriptive-name" style="stroke:none;fill:black;font-family:sans-serif;font-size:13;text-anchor:end;" transform="matrix(1 0 0 1 3036 1969)">Generated from mappin.ellipse.rectangle2</text>
  <text style="stroke:none;fill:black;font-family:sans-serif;font-size:13;text-anchor:end;" transform="matrix(1 0 0 1 3036 1987)">Typeset at 100 points</text>
  <text style="stroke:none;fill:black;font-family:sans-serif;font-size:13;" transform="matrix(1 0 0 1 263 726)">Small</text>
  <text style="stroke:none;fill:black;font-family:sans-serif;font-size:13;" transform="matrix(1 0 0 1 263 1156)">Medium</text>
  <text style="stroke:none;fill:black;font-family:sans-serif;font-size:13;" transform="matrix(1 0 0 1 263 1586)">Large</text>
 </g>
 <g id="Guides">
  <g id="H-reference" style="fill:#27AAE1;stroke:none;" transform="matrix(1 0 0 1 339 696)">
   <path d="M0.976562 0L3.66211 0L29.3457-67.1387L30.0293-67.1387L30.0293-70.459L28.125-70.459ZM11.6699-24.4629L46.9727-24.4629L46.2402-26.709L12.4512-26.709ZM55.127 0L57.7637 0L30.6152-70.459L29.4434-70.459L29.4434-67.1387Z"/>
  </g>
  <line id="Baseline-S" style="fill:none;stroke:#27AAE1;opacity:1;stroke-width:0.5;" x1="263" x2="3036" y1="696" y2="696"/>
  <line id="Capline-S" style="fill:none;stroke:#27AAE1;opacity:1;stroke-width:0.5;" x1="263" x2="3036" y1="625.541" y2="625.541"/>
  <g id="H-reference" style="fill:#27AAE1;stroke:none;" transform="matrix(1 0 0 1 339 1126)">
   <path d="M0.976562 0L3.66211 0L29.3457-67.1387L30.0293-67.1387L30.0293-70.459L28.125-70.459ZM11.6699-24.4629L46.9727-24.4629L46.2402-26.709L12.4512-26.709ZM55.127 0L57.7637 0L30.6152-70.459L29.4434-70.459L29.4434-67.1387Z"/>
  </g>
  <line id="Baseline-M" style="fill:none;stroke:#27AAE1;opacity:1;stroke-width:0.5;" x1="263" x2="3036" y1="1126" y2="1126"/>
  <line id="Capline-M" style="fill:none;stroke:#27AAE1;opacity:1;stroke-width:0.5;" x1="263" x2="3036" y1="1055.54" y2="1055.54"/>
  <g id="H-reference" style="fill:#27AAE1;stroke:none;" transform="matrix(1 0 0 1 339 1556)">
   <path d="M0.976562 0L3.66211 0L29.3457-67.1387L30.0293-67.1387L30.0293-70.459L28.125-70.459ZM11.6699-24.4629L46.9727-24.4629L46.2402-26.709L12.4512-26.709ZM55.127 0L57.7637 0L30.6152-70.459L29.4434-70.459L29.4434-67.1387Z"/>
  </g>
  <line id="Baseline-L" style="fill:none;stroke:#27AAE1;opacity:1;stroke-width:0.5;" x1="263" x2="3036" y1="1556" y2="1556"/>
  <line id="Capline-L" style="fill:none;stroke:#27AAE1;opacity:1;stroke-width:0.5;" x1="263" x2="3036" y1="1485.54" y2="1485.54"/>
  <line id="left-margin-Ultralight-S" style="fill:none;stroke:#00AEEF;stroke-width:0.5;opacity:1.0;" x1="513.201" x2="513.201" y1="600.784" y2="720.121"/>
  <line id="right-margin-Ultralight-S" style="fill:none;stroke:#FF3B30;stroke-width:0.5;opacity:1.0;" x1="606.221" x2="606.221" y1="600.784" y2="720.121"/>
  <line id="left-margin-Regular-S" style="fill:none;stroke:#00AEEF;stroke-width:0.5;opacity:1.0;" x1="1394.79" x2="1394.79" y1="600.784" y2="720.121"/>
  <line id="right-margin-Regular-S" style="fill:none;stroke:#00AEEF;stroke-width:0.5;opacity:1.0;" x1="1504.9" x2="1504.9" y1="600.784" y2="720.121"/>
  <line id="left-margin-Black-S" style="fill:none;stroke:#00AEEF;stroke-width:0.5;opacity:1.0;" x1="2877.35" x2="2877.35" y1="600.784" y2="720.121"/>
  <line id="right-margin-Black-S" style="fill:none;stroke:#00AEEF;stroke-width:0.5;opacity:1.0;" x1="2989.45" x2="2989.45" y1="600.784" y2="720.121"/>
 </g>
 <g id="Symbols">
  <g id="Black-S" transform="matrix(1 0 0 1 2877.35 696)">
   <path class="hierarchical-0:secondary SFSymbolsPreview4D4D4D" d="M25 2.92969L87.1094 2.92969C91.8945 2.92969 95.6299 1.58692 98.3154-1.09863C101.001-3.78418 102.344-7.51953 102.344-12.3047L102.344-58.1055C102.344-62.8906 101.001-66.626 98.3154-69.3115C95.6299-71.997 91.8945-73.3398 87.1094-73.3398L25-73.3398C20.2149-73.3398 16.4795-71.997 13.7939-69.3115C11.1084-66.626 9.76562-62.8906 9.76562-58.1055L9.76562-12.3047C9.76562-7.51953 11.1084-3.78418 13.7939-1.09863C16.4795 1.58692 20.2149 2.92969 25 2.92969ZM27.2461-11.2305C26.1393-11.2305 25.3092-11.4828 24.7559-11.9873C24.2025-12.4918 23.9258-13.3463 23.9258-14.5508L23.9258-55.8594C23.9258-57.0963 24.2025-57.959 24.7559-58.4473C25.3092-58.9356 26.1393-59.1797 27.2461-59.1797L84.8633-59.1797C86.0026-59.1797 86.8408-58.9356 87.3779-58.4473C87.915-57.959 88.1836-57.0963 88.1836-55.8594L88.1836-14.5508C88.1836-13.3463 87.915-12.4918 87.3779-11.9873C86.8408-11.4828 86.0026-11.2305 84.8633-11.2305L27.2461-11.2305Z"/>
   <path class="hierarchical-1:primary SFSymbolsPreview212121" d="M47.7656-48.3938C47.7656-46.4417 48.3014-44.7009 49.3731-43.1715C50.4448-41.6421 51.8101-40.5699 53.469-39.9551L53.469-28.7034C53.469-27.7811 53.6304-26.8281 53.9534-25.8444C54.2764-24.8606 54.6581-24.0306 55.0985-23.3543C55.5389-22.678 55.928-22.3398 56.2656-22.3398C56.6033-22.3398 56.9886-22.678 57.4217-23.3543C57.8548-24.0306 58.2328-24.8606 58.5557-25.8444C58.8787-26.8281 59.0402-27.7811 59.0402-28.7034L59.0402-39.9551C60.7138-40.5546 62.0864-41.6229 63.1581-43.16C64.2298-44.6971 64.7656-46.4417 64.7656-48.3938C64.7656-50.0385 64.3876-51.5372 63.6315-52.8898C62.8755-54.2425 61.8552-55.3223 60.5707-56.1293C59.2861-56.9363 57.8511-57.3398 56.2656-57.3398C54.6948-57.3398 53.2671-56.9363 51.9826-56.1293C50.698-55.3223 49.6741-54.2425 48.9107-52.8898C48.1473-51.5372 47.7656-50.0385 47.7656-48.3938ZM53.7656-47.3398C52.9777-47.3398 52.2808-47.6417 51.6747-48.2455C51.0686-48.8492 50.7656-49.5511 50.7656-50.3511C50.7656-51.1662 51.0686-51.8681 51.6747-52.4568C52.2808-53.0455 52.9777-53.3398 53.7656-53.3398C54.5989-53.3398 55.3073-53.0455 55.8906-52.4568C56.474-51.8681 56.7656-51.1662 56.7656-50.3511C56.7656-49.5511 56.474-48.8492 55.8906-48.2455C55.3073-47.6417 54.5989-47.3398 53.7656-47.3398ZM55.7655-14.3398C60.3313-14.3398 64.3394-14.782 67.7897-15.6665C71.2401-16.5509 73.9319-17.7982 75.8654-19.4084C77.7989-21.0185 78.7656-22.897 78.7656-25.0439C78.7656-26.3441 78.3677-27.5574 77.5718-28.6837C76.7762-29.8101 75.646-30.823 74.1811-31.7226C72.7161-32.6222 70.9686-33.3819 68.9386-34.0018C66.9085-34.6217 64.6517-35.0677 62.168-35.3398L62.168-29.6249C63.7296-29.4435 65.1573-29.2016 66.4512-28.8992C67.7451-28.5968 68.8642-28.2491 69.8086-27.856C70.753-27.4629 71.4817-27.0282 71.9948-26.552C72.5079-26.0757 72.7645-25.573 72.7645-25.0439C72.7645-24.0309 72.0394-23.1503 70.5894-22.4019C69.1394-21.6535 67.1391-21.0752 64.5885-20.667C62.0379-20.2588 59.0969-20.0547 55.7655-20.0547C52.449-20.0547 49.5118-20.2588 46.9537-20.667C44.3957-21.0752 42.3917-21.6535 40.9416-22.4019C39.4916-23.1503 38.7666-24.0309 38.7666-25.0439C38.7666-25.573 39.0231-26.0757 39.5362-26.552C40.0493-27.0282 40.778-27.4629 41.7224-27.856C42.6668-28.2491 43.7859-28.5968 45.0798-28.8992C46.3737-29.2016 47.8014-29.4435 49.363-29.6249L49.363-35.3398C46.8942-35.0677 44.6411-34.6217 42.6036-34.0018C40.5661-33.3819 38.8149-32.6222 37.35-31.7226C35.8851-30.823 34.7548-29.8101 33.9591-28.6837C33.1635-27.5574 32.7656-26.3441 32.7656-25.0439C32.7656-22.897 33.7323-21.0185 35.6657-19.4084C37.5991-17.7982 40.291-16.5509 43.7413-15.6665C47.1917-14.782 51.1997-14.3398 55.7655-14.3398Z"/>
  </g>
  <g id="Regular-S" transform="matrix(1 0 0 1 1394.79 696)">
   <path class="hierarchical-0:secondary SFSymbolsPreview4D4D4D" d="M22.2168 0.390625L87.8906 0.390625C92.0899 0.390625 95.2149-0.634767 97.2656-2.68555C99.3165-4.73633 100.342-7.81251 100.342-11.9141L100.342-58.4961C100.342-62.5976 99.3165-65.6738 97.2656-67.7246C95.2149-69.7754 92.0899-70.8008 87.8906-70.8008L22.2168-70.8008C18.0827-70.8008 14.9739-69.7754 12.8906-67.7246C10.8073-65.6738 9.76562-62.5976 9.76562-58.4961L9.76562-11.9141C9.76562-7.81251 10.8073-4.73633 12.8906-2.68555C14.9739-0.634767 18.0827 0.390625 22.2168 0.390625ZM22.3145-6.68945C20.5566-6.68945 19.1976-7.16146 18.2373-8.10547C17.277-9.04948 16.7969-10.433 16.7969-12.2559L16.7969-58.1543C16.7969-60.0098 17.277-61.4014 18.2373-62.3291C19.1976-63.2568 20.5566-63.7207 22.3145-63.7207L87.793-63.7207C89.5508-63.7207 90.9098-63.2568 91.8701-62.3291C92.8304-61.4014 93.3105-60.0098 93.3105-58.1543L93.3105-12.2559C93.3105-10.433 92.8304-9.04948 91.8701-8.10547C90.9098-7.16146 89.5508-6.68945 87.793-6.68945L22.3145-6.68945Z"/>
   <path class="hierarchical-1:primary SFSymbolsPreview212121" d="M46.7656-50.0011C46.7656-47.9833 47.3495-46.1991 48.5172-44.6484C49.685-43.0977 51.1741-42.0514 52.9845-41.5096L52.9845-29.2629C52.9845-26.7967 53.1067-24.7089 53.3511-22.9994C53.5955-21.2899 53.8942-19.9961 54.2473-19.118C54.6003-18.2399 54.9397-17.8008 55.2656-17.8008C55.5915-17.8008 55.931-18.2399 56.284-19.118C56.637-19.9961 56.9312-21.2899 57.1666-22.9994C57.402-24.7089 57.5197-26.7967 57.5197-29.2629L57.5197-41.5096C59.3301-42.0327 60.8237-43.0743 62.0005-44.6344C63.1772-46.1944 63.7656-47.9833 63.7656-50.0011C63.7656-51.6078 63.3854-53.0791 62.625-54.415C61.8647-55.7508 60.8418-56.8157 59.5564-57.6098C58.271-58.4038 56.8407-58.8008 55.2656-58.8008C53.6906-58.8008 52.2603-58.4038 50.9749-57.6098C49.6895-56.8157 48.6666-55.7508 47.9062-54.415C47.1458-53.0791 46.7656-51.6078 46.7656-50.0011ZM51.2656-49.8008C50.5958-49.8008 50.0117-50.0527 49.5133-50.5566C49.0148-51.0605 48.7656-51.6458 48.7656-52.3124C48.7656-52.9791 49.0148-53.5605 49.5133-54.0566C50.0117-54.5527 50.5958-54.8008 51.2656-54.8008C51.951-54.8008 52.539-54.5527 53.0296-54.0566C53.5203-53.5605 53.7656-52.9791 53.7656-52.3124C53.7656-51.6458 53.5203-51.0605 53.0296-50.5566C52.539-50.0527 51.951-49.8008 51.2656-49.8008ZM54.7656-10.8008C59.2782-10.8008 63.0972-11.2577 66.2227-12.1715C69.3482-13.0853 71.7201-14.2615 73.3383-15.7001C74.9565-17.1387 75.7656-18.636 75.7656-20.1922C75.7656-21.676 75.257-23.006 74.2399-24.1822C73.2227-25.3584 71.9235-26.3627 70.3422-27.1951C68.761-28.0275 67.0965-28.6653 65.3489-29.1087C63.6012-29.552 61.9968-29.7827 60.5358-29.8008L60.5358-26.2451C61.4975-26.227 62.5609-26.0822 63.726-25.8108C64.8911-25.5394 66.0008-25.1639 67.0549-24.6844C68.1091-24.2049 68.9737-23.6394 69.6487-22.9879C70.3237-22.3365 70.6612-21.6127 70.6612-20.8165C70.6612-19.6222 69.977-18.5637 68.6085-17.6408C67.2399-16.7179 65.3581-15.9941 62.9631-15.4694C60.5681-14.9446 57.8356-14.6822 54.7656-14.6822C51.6771-14.6822 48.94-14.9401 46.5543-15.4558C44.1685-15.9715 42.2914-16.6908 40.9228-17.6137C39.5543-18.5365 38.87-19.6041 38.87-20.8165C38.87-21.6127 39.2075-22.3365 39.8825-22.9879C40.5576-23.6394 41.4222-24.2049 42.4763-24.6844C43.5305-25.1639 44.6401-25.5394 45.8052-25.8108C46.9704-26.0822 48.0338-26.227 48.9955-26.2451L48.9955-29.8008C47.5345-29.7827 45.9301-29.552 44.1824-29.1087C42.4347-28.6653 40.7702-28.0275 39.189-27.1951C37.6077-26.3627 36.3085-25.3584 35.2914-24.1822C34.2742-23.006 33.7656-21.676 33.7656-20.1922C33.7656-18.636 34.5747-17.1387 36.193-15.7001C37.8112-14.2615 40.1831-13.0853 43.3085-12.1715C46.4341-11.2577 50.2531-10.8008 54.7656-10.8008Z"/>
  </g>
  <g id="Ultralight-S" transform="matrix(1 0 0 1 513.201 696)">
   <path class="hierarchical-0:secondary SFSymbolsPreview4D4D4D" d="M10.7942 0.1523L82.7511 0.1523C86.2411 0.1523 88.8672-0.75068 90.629-2.55663C92.392-4.36259 93.273-6.96833 93.273-10.3739L93.273-60.2699C93.273-63.6755 92.392-66.2898 90.629-68.113C88.8672-69.9362 86.2411-70.8477 82.7511-70.8477L10.7942-70.8477C7.3384-70.8477 4.7208-69.9533 2.9415-68.1645C1.1623-66.3758 0.27262-63.7442 0.27262-60.2699L0.27262-10.3739C0.27262-6.93394 1.1623-4.3196 2.9415-2.53083C4.7208-0.74207 7.3384 0.1523 10.7942 0.1523ZM10.8427-1.6504C8.0863-1.6504 6.0017-2.36243 4.5889-3.78649C3.1762-5.21054 2.4699-7.31189 2.4699-10.0905L2.4699-60.2102C2.4699-62.9889 3.1762-65.0903 4.5889-66.5143C6.0017-67.9384 8.0863-68.6504 10.8427-68.6504L83.0971-68.6504C85.7847-68.6504 87.8521-67.9384 89.2991-66.5143C90.746-65.0903 91.47-62.9889 91.47-60.2102L91.47-10.0905C91.47-7.31189 90.746-5.21054 89.2991-3.78649C87.8521-2.36243 85.7847-1.6504 83.0971-1.6504L10.8427-1.6504Z"/>
   <path class="hierarchical-1:primary SFSymbolsPreview212121" d="M39.2726-54.6153C39.2726-52.7862 39.8741-51.1942 41.0769-49.8393C42.2798-48.4845 43.7722-47.7167 45.5542-47.536L45.5542-21.8948C45.5542-20.9464 45.5876-20.1617 45.6545-19.5407C45.7213-18.9197 45.8104-18.4624 45.9218-18.1688C46.0332-17.8753 46.1557-17.7285 46.2894-17.7285C46.4007-17.7285 46.5121-17.8753 46.6234-18.1688C46.7348-18.4624 46.8295-18.9197 46.9075-19.5407C46.9854-20.1617 47.0244-20.9464 47.0244-21.8948L47.0244-47.536C48.7842-47.7167 50.2655-48.4845 51.4683-49.8393C52.6712-51.1942 53.2726-52.7862 53.2726-54.6153C53.2726-55.925 52.9608-57.1162 52.3371-58.1889C51.7134-59.2615 50.8725-60.1196 49.8144-60.7631C48.7563-61.4067 47.5813-61.7285 46.2894-61.7285C44.9751-61.7285 43.7945-61.4067 42.7476-60.7631C41.7006-60.1196 40.8597-59.2615 40.2249-58.1889C39.59-57.1162 39.2726-55.925 39.2726-54.6153ZM43.7901-54.7285C43.1375-54.7285 42.5547-54.9773 42.0418-55.475C41.529-55.9727 41.2726-56.5572 41.2726-57.2285C41.2726-57.8998 41.529-58.4843 42.0418-58.982C42.5547-59.4797 43.1375-59.7285 43.7901-59.7285C44.4661-59.7285 45.0489-59.4797 45.5384-58.982C46.0279-58.4843 46.2726-57.8998 46.2726-57.2285C46.2726-56.5572 46.0279-55.9727 45.5384-55.475C45.0489-54.9773 44.4661-54.7285 43.7901-54.7285ZM46.7384-8.7285C51.3221-8.7285 55.3813-9.15768 58.916-10.016C62.4507-10.8744 65.2271-12.0576 67.2453-13.5655C69.2635-15.0734 70.2726-16.8134 70.2726-18.7853C70.2726-20.1076 69.7253-21.3082 68.6307-22.3869C67.5361-23.4657 66.0994-24.3995 64.3207-25.1882C62.5419-25.977 60.6206-26.5917 58.5568-27.0325C56.493-27.4733 54.4577-27.7053 52.4509-27.7285L52.4509-26.2669C54.2069-26.2206 56.0255-26.0118 57.9069-25.6406C59.7882-25.2694 61.5385-24.7533 63.1576-24.0921C64.7767-23.4309 66.0937-22.6595 67.1085-21.778C68.1233-20.8964 68.6307-19.9104 68.6307-18.8201C68.6307-17.1033 67.6615-15.6012 65.7231-14.3137C63.7847-13.0261 61.1622-12.0228 57.8556-11.3036C54.5489-10.5844 50.8432-10.2248 46.7384-10.2248C42.6564-10.2248 38.9678-10.5786 35.6725-11.2862C32.3773-11.9938 29.7548-12.9913 27.805-14.2789C25.8552-15.5664 24.8803-17.0801 24.8803-18.8201C24.8803-19.9104 25.3877-20.8964 26.4025-21.778C27.4173-22.6595 28.74-23.4309 30.3705-24.0921C32.001-24.7533 33.757-25.2694 35.6383-25.6406C37.5197-26.0118 39.3155-26.2206 41.0259-26.2669L41.0259-27.7285C39.0647-27.7053 37.0408-27.4733 34.9542-27.0325C32.8676-26.5917 30.9463-25.977 29.1904-25.1882C27.4344-24.3995 26.0091-23.4657 24.9145-22.3869C23.8199-21.3082 23.2726-20.1076 23.2726-18.7853C23.2726-16.8134 24.2817-15.0734 26.2999-13.5655C28.3181-12.0576 31.0945-10.8744 34.6293-10.016C38.1639-9.15768 42.2003-8.7285 46.7384-8.7285Z"/>
  </g>
 </g>
</svg>
