<?xml version="1.0" encoding="UTF-8"?>
<!--Generator: Apple Native CoreSVG 175-->
<!DOCTYPE svg
PUBLIC "-//W3C//DTD SVG 1.1//EN"
       "http://www.w3.org/Graphics/SVG/1.1/DTD/svg11.dtd">
<svg version="1.1" xmlns="http://www.w3.org/2000/svg" xmlns:xlink="http://www.w3.org/1999/xlink" width="3300" height="2200">
 <!--glyph: "", point size: 100.0, font version: "17.1d1e1", template writer version: "65.1"-->
 <style>.hierarchical-0:tertiary {fill:#8E8E8E}
.hierarchical-1:secondary {fill:#4D4D4D}
.hierarchical-2:primary {fill:#212121}

.SFSymbolsPreview212121 {fill:#212121;opacity:1.0}
.SFSymbolsPreview4D4D4D {fill:#4D4D4D;opacity:1.0}
.SFSymbolsPreview8E8E8E {fill:#8E8E8E;opacity:1.0}
</style>
 <g id="Notes">
  <rect height="2200" id="artboard" style="fill:white;opacity:1" width="3300" x="0" y="0"/>
  <line style="fill:none;stroke:black;opacity:1;stroke-width:0.5;" x1="263" x2="3036" y1="292" y2="292"/>
  <text style="stroke:none;fill:black;font-family:sans-serif;font-size:13;font-weight:bold;" transform="matrix(1 0 0 1 263 322)">Weight/Scale Variations</text>
  <text style="stroke:none;fill:black;font-family:sans-serif;font-size:13;text-anchor:middle;" transform="matrix(1 0 0 1 559.711 322)">Ultralight</text>
  <text style="stroke:none;fill:black;font-family:sans-serif;font-size:13;text-anchor:middle;" transform="matrix(1 0 0 1 856.422 322)">Thin</text>
  <text style="stroke:none;fill:black;font-family:sans-serif;font-size:13;text-anchor:middle;" transform="matrix(1 0 0 1 1153.13 322)">Light</text>
  <text style="stroke:none;fill:black;font-family:sans-serif;font-size:13;text-anchor:middle;" transform="matrix(1 0 0 1 1449.84 322)">Regular</text>
  <text style="stroke:none;fill:black;font-family:sans-serif;font-size:13;text-anchor:middle;" transform="matrix(1 0 0 1 1746.56 322)">Medium</text>
  <text style="stroke:none;fill:black;font-family:sans-serif;font-size:13;text-anchor:middle;" transform="matrix(1 0 0 1 2043.27 322)">Semibold</text>
  <text style="stroke:none;fill:black;font-family:sans-serif;font-size:13;text-anchor:middle;" transform="matrix(1 0 0 1 2339.98 322)">Bold</text>
  <text style="stroke:none;fill:black;font-family:sans-serif;font-size:13;text-anchor:middle;" transform="matrix(1 0 0 1 2636.69 322)">Heavy</text>
  <text style="stroke:none;fill:black;font-family:sans-serif;font-size:13;text-anchor:middle;" transform="matrix(1 0 0 1 2933.4 322)">Black</text>
  <line style="fill:none;stroke:black;opacity:1;stroke-width:0.5;" x1="263" x2="3036" y1="1903" y2="1903"/>
  <g transform="matrix(1 0 0 1 263 1933)">
   <path d="M9.24805 0.830078Q10.8691 0.830078 12.2949 0.214844Q13.7207-0.400391 14.8096-1.49414Q15.8984-2.58789 16.5186-4.01367Q17.1387-5.43945 17.1387-7.05078Q17.1387-8.66211 16.5186-10.0879Q15.8984-11.5137 14.8047-12.6074Q13.7109-13.7012 12.2852-14.3164Q10.8594-14.9316 9.23828-14.9316Q7.62695-14.9316 6.20117-14.3164Q4.77539-13.7012 3.69141-12.6074Q2.60742-11.5137 1.9873-10.0879Q1.36719-8.66211 1.36719-7.05078Q1.36719-5.43945 1.9873-4.01367Q2.60742-2.58789 3.69629-1.49414Q4.78516-0.400391 6.21094 0.214844Q7.63672 0.830078 9.24805 0.830078ZM9.24805-0.654297Q7.91992-0.654297 6.7627-1.14746Q5.60547-1.64062 4.73145-2.51953Q3.85742-3.39844 3.36426-4.56055Q2.87109-5.72266 2.87109-7.05078Q2.87109-8.37891 3.35938-9.54102Q3.84766-10.7031 4.72168-11.582Q5.5957-12.4609 6.75293-12.9541Q7.91016-13.4473 9.23828-13.4473Q10.5762-13.4473 11.7334-12.9541Q12.8906-12.4609 13.7695-11.582Q14.6484-10.7031 15.1465-9.54102Q15.6445-8.37891 15.6445-7.05078Q15.6445-5.72266 15.1514-4.56055Q14.6582-3.39844 13.7842-2.51953Q12.9102-1.64062 11.748-1.14746Q10.5859-0.654297 9.24805-0.654297ZM5.6543-7.05078Q5.6543-6.72852 5.85938-6.52832Q6.06445-6.32812 6.40625-6.32812L8.51562-6.32812L8.51562-4.20898Q8.51562-3.88672 8.71094-3.67676Q8.90625-3.4668 9.23828-3.4668Q9.56055-3.4668 9.77051-3.67676Q9.98047-3.88672 9.98047-4.20898L9.98047-6.32812L12.0898-6.32812Q12.4219-6.32812 12.627-6.52832Q12.832-6.72852 12.832-7.05078Q12.832-7.38281 12.627-7.58789Q12.4219-7.79297 12.0898-7.79297L9.98047-7.79297L9.98047-9.90234Q9.98047-10.2344 9.77051-10.4443Q9.56055-10.6543 9.23828-10.6543Q8.90625-10.6543 8.71094-10.4443Q8.51562-10.2344 8.51562-9.90234L8.51562-7.79297L6.40625-7.79297Q6.06445-7.79297 5.85938-7.58789Q5.6543-7.38281 5.6543-7.05078Z"/>
  </g>
  <g transform="matrix(1 0 0 1 281.867 1933)">
   <path d="M11.709 2.91016Q13.75 2.91016 15.5518 2.12891Q17.3535 1.34766 18.7305-0.0292969Q20.1074-1.40625 20.8887-3.20801Q21.6699-5.00977 21.6699-7.05078Q21.6699-9.0918 20.8887-10.8936Q20.1074-12.6953 18.7305-14.0723Q17.3535-15.4492 15.5469-16.2305Q13.7402-17.0117 11.6992-17.0117Q9.6582-17.0117 7.85645-16.2305Q6.05469-15.4492 4.68262-14.0723Q3.31055-12.6953 2.5293-10.8936Q1.74805-9.0918 1.74805-7.05078Q1.74805-5.00977 2.5293-3.20801Q3.31055-1.40625 4.6875-0.0292969Q6.06445 1.34766 7.86621 2.12891Q9.66797 2.91016 11.709 2.91016ZM11.709 1.25Q9.98047 1.25 8.47656 0.605469Q6.97266-0.0390625 5.83496-1.17676Q4.69727-2.31445 4.05762-3.81836Q3.41797-5.32227 3.41797-7.05078Q3.41797-8.7793 4.05762-10.2832Q4.69727-11.7871 5.83008-12.9297Q6.96289-14.0723 8.4668-14.7119Q9.9707-15.3516 11.6992-15.3516Q13.4277-15.3516 14.9316-14.7119Q16.4355-14.0723 17.5781-12.9297Q18.7207-11.7871 19.3652-10.2832Q20.0098-8.7793 20.0098-7.05078Q20.0098-5.32227 19.3701-3.81836Q18.7305-2.31445 17.5928-1.17676Q16.4551-0.0390625 14.9463 0.605469Q13.4375 1.25 11.709 1.25ZM7.17773-7.05078Q7.17773-6.69922 7.41211-6.47461Q7.64648-6.25 8.01758-6.25L10.8887-6.25L10.8887-3.36914Q10.8887-2.99805 11.1133-2.76855Q11.3379-2.53906 11.6895-2.53906Q12.0605-2.53906 12.29-2.76855Q12.5195-2.99805 12.5195-3.36914L12.5195-6.25L15.4004-6.25Q15.7715-6.25 16.001-6.47461Q16.2305-6.69922 16.2305-7.05078Q16.2305-7.42188 16.001-7.65137Q15.7715-7.88086 15.4004-7.88086L12.5195-7.88086L12.5195-10.752Q12.5195-11.1328 12.29-11.3623Q12.0605-11.5918 11.6895-11.5918Q11.3379-11.5918 11.1133-11.3574Q10.8887-11.123 10.8887-10.752L10.8887-7.88086L8.01758-7.88086Q7.63672-7.88086 7.40723-7.65137Q7.17773-7.42188 7.17773-7.05078Z"/>
  </g>
  <g transform="matrix(1 0 0 1 305.646 1933)">
   <path d="M14.9707 5.66406Q17.0605 5.66406 18.96 5.01465Q20.8594 4.36523 22.4512 3.19336Q24.043 2.02148 25.2197 0.429688Q26.3965-1.16211 27.0459-3.06641Q27.6953-4.9707 27.6953-7.05078Q27.6953-9.14062 27.0459-11.04Q26.3965-12.9395 25.2197-14.5312Q24.043-16.123 22.4512-17.2998Q20.8594-18.4766 18.9551-19.126Q17.0508-19.7754 14.9609-19.7754Q12.8711-19.7754 10.9717-19.126Q9.07227-18.4766 7.48535-17.2998Q5.89844-16.123 4.72168-14.5312Q3.54492-12.9395 2.90039-11.04Q2.25586-9.14062 2.25586-7.05078Q2.25586-4.9707 2.90527-3.06641Q3.55469-1.16211 4.72656 0.429688Q5.89844 2.02148 7.49023 3.19336Q9.08203 4.36523 10.9814 5.01465Q12.8809 5.66406 14.9707 5.66406ZM14.9707 3.84766Q13.1641 3.84766 11.5283 3.2959Q9.89258 2.74414 8.53516 1.74805Q7.17773 0.751953 6.17676-0.610352Q5.17578-1.97266 4.62891-3.6084Q4.08203-5.24414 4.08203-7.05078Q4.08203-8.86719 4.62891-10.5029Q5.17578-12.1387 6.17188-13.501Q7.16797-14.8633 8.52539-15.8594Q9.88281-16.8555 11.5186-17.4023Q13.1543-17.9492 14.9609-17.9492Q16.7773-17.9492 18.4131-17.4023Q20.0488-16.8555 21.4111-15.8594Q22.7734-14.8633 23.7695-13.501Q24.7656-12.1387 25.3174-10.5029Q25.8691-8.86719 25.8691-7.05078Q25.8789-5.24414 25.332-3.6084Q24.7852-1.97266 23.7842-0.610352Q22.7832 0.751953 21.4209 1.74805Q20.0586 2.74414 18.4229 3.2959Q16.7871 3.84766 14.9707 3.84766ZM9.19922-7.05078Q9.19922-6.66992 9.45801-6.4209Q9.7168-6.17188 10.1172-6.17188L14.0625-6.17188L14.0625-2.2168Q14.0625-1.81641 14.3115-1.55762Q14.5605-1.29883 14.9512-1.29883Q15.3516-1.29883 15.6104-1.55273Q15.8691-1.80664 15.8691-2.2168L15.8691-6.17188L19.8242-6.17188Q20.2246-6.17188 20.4785-6.4209Q20.7324-6.66992 20.7324-7.05078Q20.7324-7.46094 20.4785-7.71484Q20.2246-7.96875 19.8242-7.96875L15.8691-7.96875L15.8691-11.9141Q15.8691-12.3242 15.6104-12.583Q15.3516-12.8418 14.9512-12.8418Q14.5605-12.8418 14.3115-12.583Q14.0625-12.3242 14.0625-11.9141L14.0625-7.96875L10.1172-7.96875Q9.70703-7.96875 9.45312-7.71484Q9.19922-7.46094 9.19922-7.05078Z"/>
  </g>
  <text style="stroke:none;fill:black;font-family:sans-serif;font-size:13;font-weight:bold;" transform="matrix(1 0 0 1 263 1953)">Design Variations</text>
  <text style="stroke:none;fill:black;font-family:sans-serif;font-size:13;" transform="matrix(1 0 0 1 263 1971)">Symbols are supported in up to nine weights and three scales.</text>
  <text style="stroke:none;fill:black;font-family:sans-serif;font-size:13;" transform="matrix(1 0 0 1 263 1989)">For optimal layout with text and other symbols, vertically align</text>
  <text style="stroke:none;fill:black;font-family:sans-serif;font-size:13;" transform="matrix(1 0 0 1 263 2007)">symbols with the adjacent text.</text>
  <line style="fill:none;stroke:#00AEEF;stroke-width:0.5;opacity:1.0;" x1="776" x2="776" y1="1919" y2="1933"/>
  <g transform="matrix(1 0 0 1 776 1933)">
   <path d="M3.31055 0.15625Q3.70117 0.15625 3.91602-0.00976562Q4.13086-0.175781 4.26758-0.585938L5.52734-4.0332L11.2891-4.0332L12.5488-0.585938Q12.6855-0.175781 12.9004-0.00976562Q13.1152 0.15625 13.4961 0.15625Q13.8867 0.15625 14.1162-0.0585938Q14.3457-0.273438 14.3457-0.644531Q14.3457-0.869141 14.2383-1.17188L9.6582-13.3691Q9.48242-13.8184 9.17969-14.043Q8.87695-14.2676 8.4082-14.2676Q7.5-14.2676 7.17773-13.3789L2.59766-1.16211Q2.49023-0.859375 2.49023-0.634766Q2.49023-0.263672 2.70996-0.0537109Q2.92969 0.15625 3.31055 0.15625ZM6.00586-5.51758L8.37891-12.0898L8.42773-12.0898L10.8008-5.51758Z"/>
  </g>
  <line style="fill:none;stroke:#00AEEF;stroke-width:0.5;opacity:1.0;" x1="793.197" x2="793.197" y1="1919" y2="1933"/>
  <text style="stroke:none;fill:black;font-family:sans-serif;font-size:13;font-weight:bold;" transform="matrix(1 0 0 1 776 1953)">Margins</text>
  <text style="stroke:none;fill:black;font-family:sans-serif;font-size:13;" transform="matrix(1 0 0 1 776 1971)">Leading and trailing margins on the left and right side of each symbol</text>
  <text style="stroke:none;fill:black;font-family:sans-serif;font-size:13;" transform="matrix(1 0 0 1 776 1989)">can be adjusted by modifying the x-location of the margin guidelines.</text>
  <text style="stroke:none;fill:black;font-family:sans-serif;font-size:13;" transform="matrix(1 0 0 1 776 2007)">Modifications are automatically applied proportionally to all</text>
  <text style="stroke:none;fill:black;font-family:sans-serif;font-size:13;" transform="matrix(1 0 0 1 776 2025)">scales and weights.</text>
  <g transform="matrix(1 0 0 1 1289 1933)">
   <path d="M2.8418 1.86523L4.54102 3.57422Q5.18555 4.22852 5.90332 4.17969Q6.62109 4.13086 7.31445 3.35938L18.0078-8.42773L17.041-9.4043L6.42578 2.27539Q6.16211 2.57812 5.89355 2.61719Q5.625 2.65625 5.27344 2.30469L4.10156 1.14258Q3.75 0.791016 3.79395 0.522461Q3.83789 0.253906 4.14062-0.0195312L15.6152-10.8203L14.6387-11.7871L3.04688-0.898438Q2.30469-0.214844 2.25098 0.498047Q2.19727 1.21094 2.8418 1.86523ZM9.25781-16.3281Q8.94531-16.0254 8.90625-15.6348Q8.86719-15.2441 9.04297-14.9512Q9.21875-14.6777 9.55566-14.541Q9.89258-14.4043 10.3809-14.5215Q11.4746-14.7754 12.5977-14.7314Q13.7207-14.6875 14.7949-13.9844L14.209-12.5293Q13.9551-11.9043 14.0674-11.4404Q14.1797-10.9766 14.5801-10.5664L16.875-8.25195Q17.2363-7.88086 17.5781-7.82227Q17.9199-7.76367 18.3398-7.8418L19.4043-8.03711L20.0684-7.36328L20.0293-6.80664Q20-6.43555 20.1221-6.12305Q20.2441-5.81055 20.6055-5.44922L21.3672-4.70703Q21.7285-4.3457 22.1533-4.33105Q22.5781-4.31641 22.9297-4.66797L25.8398-7.58789Q26.1914-7.93945 26.1816-8.35449Q26.1719-8.76953 25.8105-9.13086L25.0391-9.89258Q24.6875-10.2539 24.3799-10.3857Q24.0723-10.5176 23.7109-10.4883L23.1348-10.4395L22.4902-11.0742L22.7344-12.1973Q22.832-12.6172 22.6953-12.9834Q22.5586-13.3496 22.1191-13.7891L19.9219-15.9766Q18.6719-17.2168 17.2607-17.8369Q15.8496-18.457 14.4189-18.4814Q12.9883-18.5059 11.665-17.959Q10.3418-17.4121 9.25781-16.3281ZM10.752-15.957Q11.6602-16.6211 12.7002-16.9043Q13.7402-17.1875 14.8047-17.085Q15.8691-16.9824 16.8701-16.5137Q17.8711-16.0449 18.7012-15.2051L21.1328-12.793Q21.3086-12.6172 21.3525-12.4512Q21.3965-12.2852 21.3379-12.0312L21.0156-10.5469L22.5195-9.0625L23.5059-9.12109Q23.6914-9.13086 23.7891-9.09668Q23.8867-9.0625 24.0332-8.91602L24.6094-8.33984L22.168-5.89844L21.5918-6.47461Q21.4453-6.62109 21.4062-6.71875Q21.3672-6.81641 21.377-7.01172L21.4453-7.98828L19.9512-9.47266L18.4277-9.21875Q18.1836-9.16992 18.042-9.2041Q17.9004-9.23828 17.7148-9.41406L15.7129-11.416Q15.5176-11.5918 15.4932-11.7529Q15.4688-11.9141 15.5859-12.1875L16.4648-14.2773Q15.293-15.3711 13.8281-15.791Q12.3633-16.2109 10.8398-15.7617Q10.7227-15.7324 10.6885-15.8057Q10.6543-15.8789 10.752-15.957Z"/>
  </g>
  <text style="stroke:none;fill:black;font-family:sans-serif;font-size:13;font-weight:bold;" transform="matrix(1 0 0 1 1289 1953)">Exporting</text>
  <text style="stroke:none;fill:black;font-family:sans-serif;font-size:13;" transform="matrix(1 0 0 1 1289 1971)">Symbols should be outlined when exporting to ensure the</text>
  <text style="stroke:none;fill:black;font-family:sans-serif;font-size:13;" transform="matrix(1 0 0 1 1289 1989)">design is preserved when submitting to Xcode.</text>
  <text id="template-version" style="stroke:none;fill:black;font-family:sans-serif;font-size:13;text-anchor:end;" transform="matrix(1 0 0 1 3036 1933)">Template v.3.0</text>
  <text style="stroke:none;fill:black;font-family:sans-serif;font-size:13;text-anchor:end;" transform="matrix(1 0 0 1 3036 1951)">Requires Xcode 13 or greater</text>
  <text id="descriptive-name" style="stroke:none;fill:black;font-family:sans-serif;font-size:13;text-anchor:end;" transform="matrix(1 0 0 1 3036 1969)">Generated from slider.horizontal.3.rectangle</text>
  <text style="stroke:none;fill:black;font-family:sans-serif;font-size:13;text-anchor:end;" transform="matrix(1 0 0 1 3036 1987)">Typeset at 100 points</text>
  <text style="stroke:none;fill:black;font-family:sans-serif;font-size:13;" transform="matrix(1 0 0 1 263 726)">Small</text>
  <text style="stroke:none;fill:black;font-family:sans-serif;font-size:13;" transform="matrix(1 0 0 1 263 1156)">Medium</text>
  <text style="stroke:none;fill:black;font-family:sans-serif;font-size:13;" transform="matrix(1 0 0 1 263 1586)">Large</text>
 </g>
 <g id="Guides">
  <g id="H-reference" style="fill:#27AAE1;stroke:none;" transform="matrix(1 0 0 1 339 696)">
   <path d="M0.976562 0L3.66211 0L29.3457-67.1387L30.0293-67.1387L30.0293-70.459L28.125-70.459ZM11.6699-24.4629L46.9727-24.4629L46.2402-26.709L12.4512-26.709ZM55.127 0L57.7637 0L30.6152-70.459L29.4434-70.459L29.4434-67.1387Z"/>
  </g>
  <line id="Baseline-S" style="fill:none;stroke:#27AAE1;opacity:1;stroke-width:0.5;" x1="263" x2="3036" y1="696" y2="696"/>
  <line id="Capline-S" style="fill:none;stroke:#27AAE1;opacity:1;stroke-width:0.5;" x1="263" x2="3036" y1="625.541" y2="625.541"/>
  <g id="H-reference" style="fill:#27AAE1;stroke:none;" transform="matrix(1 0 0 1 339 1126)">
   <path d="M0.976562 0L3.66211 0L29.3457-67.1387L30.0293-67.1387L30.0293-70.459L28.125-70.459ZM11.6699-24.4629L46.9727-24.4629L46.2402-26.709L12.4512-26.709ZM55.127 0L57.7637 0L30.6152-70.459L29.4434-70.459L29.4434-67.1387Z"/>
  </g>
  <line id="Baseline-M" style="fill:none;stroke:#27AAE1;opacity:1;stroke-width:0.5;" x1="263" x2="3036" y1="1126" y2="1126"/>
  <line id="Capline-M" style="fill:none;stroke:#27AAE1;opacity:1;stroke-width:0.5;" x1="263" x2="3036" y1="1055.54" y2="1055.54"/>
  <g id="H-reference" style="fill:#27AAE1;stroke:none;" transform="matrix(1 0 0 1 339 1556)">
   <path d="M0.976562 0L3.66211 0L29.3457-67.1387L30.0293-67.1387L30.0293-70.459L28.125-70.459ZM11.6699-24.4629L46.9727-24.4629L46.2402-26.709L12.4512-26.709ZM55.127 0L57.7637 0L30.6152-70.459L29.4434-70.459L29.4434-67.1387Z"/>
  </g>
  <line id="Baseline-L" style="fill:none;stroke:#27AAE1;opacity:1;stroke-width:0.5;" x1="263" x2="3036" y1="1556" y2="1556"/>
  <line id="Capline-L" style="fill:none;stroke:#27AAE1;opacity:1;stroke-width:0.5;" x1="263" x2="3036" y1="1485.54" y2="1485.54"/>
  <line id="left-margin-Ultralight-S" style="fill:none;stroke:#FF3B30;stroke-width:0.5;opacity:1.0;" x1="513.202" x2="513.202" y1="600.784" y2="720.121"/>
  <line id="right-margin-Ultralight-S" style="fill:none;stroke:#00AEEF;stroke-width:0.5;opacity:1.0;" x1="606.22" x2="606.22" y1="600.784" y2="720.121"/>
  <line id="left-margin-Regular-S" style="fill:none;stroke:#FF3B30;stroke-width:0.5;opacity:1.0;" x1="1401.14" x2="1401.14" y1="600.784" y2="720.121"/>
  <line id="right-margin-Regular-S" style="fill:none;stroke:#FF3B30;stroke-width:0.5;opacity:1.0;" x1="1498.55" x2="1498.55" y1="600.784" y2="720.121"/>
  <line id="left-margin-Black-S" style="fill:none;stroke:#FF3B30;stroke-width:0.5;opacity:1.0;" x1="2879.69" x2="2879.69" y1="600.784" y2="720.121"/>
  <line id="right-margin-Black-S" style="fill:none;stroke:#FF3B30;stroke-width:0.5;opacity:1.0;" x1="2987.11" x2="2987.11" y1="600.784" y2="720.121"/>
 </g>
 <g id="Symbols">
  <g id="Black-S" transform="matrix(1 0 0 1 2879.69 696)">
   <path class="hierarchical-0:tertiary SFSymbolsPreview8E8E8E" d="M66.31-43C68.1577-43 69.8369-43.4494 71.3475-44.3483C72.8581-45.2472 74.0628-46.4582 74.9617-47.9812C75.8606-49.5043 76.31-51.1773 76.31-53C76.31-54.8477 75.8606-56.5268 74.9617-58.0374C74.0628-59.548 72.8581-60.7528 71.3475-61.6517C69.8369-62.5506 68.1577-63 66.31-63C64.4873-63 62.8144-62.5506 61.2913-61.6517C59.7682-60.7528 58.5572-59.548 57.6583-58.0374C56.7594-56.5268 56.31-54.8477 56.31-53C56.31-51.1773 56.7594-49.5043 57.6583-47.9812C58.5572-46.4582 59.7682-45.2472 61.2913-44.3483C62.8144-43.4494 64.4873-43 66.31-43ZM66.31-11C68.1577-11 69.8369-11.4494 71.3475-12.3483C72.8581-13.2472 74.0628-14.4582 74.9617-15.9813C75.8606-17.5044 76.31-19.1773 76.31-21C76.31-22.8477 75.8606-24.5269 74.9617-26.0375C74.0628-27.5481 72.8581-28.7528 71.3475-29.6517C69.8369-30.5506 68.1577-31 66.31-31C64.4873-31 62.8144-30.5506 61.2913-29.6517C59.7682-28.7528 58.5572-27.5481 57.6583-26.0375C56.7594-24.5269 56.31-22.8477 56.31-21C56.31-19.1773 56.7594-17.5044 57.6583-15.9813C58.5572-14.4582 59.7682-13.2472 61.2913-12.3483C62.8144-11.4494 64.4873-11 66.31-11ZM40.31-27C42.1327-27 43.7994-27.4494 45.31-28.3483C46.8206-29.2472 48.0316-30.4582 48.9429-31.9813C49.8543-33.5044 50.31-35.1773 50.31-37C50.31-38.8477 49.8606-40.5268 48.9617-42.0374C48.0628-43.548 46.858-44.7528 45.3474-45.6516C43.8368-46.5505 42.1577-47 40.31-47C38.4873-47 36.8144-46.5505 35.2913-45.6516C33.7682-44.7528 32.5572-43.548 31.6584-42.0374C30.7595-40.5268 30.31-38.8477 30.31-37C30.31-35.1773 30.7595-33.5044 31.6584-31.9813C32.5572-30.4582 33.7682-29.2472 35.2913-28.3483C36.8144-27.4494 38.4873-27 40.31-27ZM40.31-32C38.9259-32 37.7465-32.4873 36.7719-33.4619C35.7973-34.4365 35.31-35.6158 35.31-37C35.31-38.4124 35.7973-39.5988 36.7719-40.5593C37.7465-41.5198 38.9259-42 40.31-42C41.7225-42 42.9089-41.5198 43.8693-40.5593C44.8298-39.5988 45.31-38.4124 45.31-37C45.31-35.6158 44.8298-34.4365 43.8693-33.4619C42.9089-32.4873 41.7225-32 40.31-32ZM66.31-48C64.9259-48 63.7465-48.4873 62.7719-49.4619C61.7973-50.4365 61.31-51.6159 61.31-53C61.31-54.4125 61.7973-55.5989 62.7719-56.5593C63.7465-57.5198 64.9259-58 66.31-58C67.7224-58 68.9089-57.5198 69.8694-56.5593C70.8298-55.5989 71.31-54.4125 71.31-53C71.31-51.6159 70.8298-50.4365 69.8694-49.4619C68.9089-48.4873 67.7224-48 66.31-48ZM66.31-16C64.9259-16 63.7465-16.4873 62.7719-17.4619C61.7973-18.4364 61.31-19.6158 61.31-21C61.31-22.4124 61.7973-23.5989 62.7719-24.5594C63.7465-25.5198 64.9259-26 66.31-26C67.7224-26 68.9089-25.5198 69.8694-24.5594C70.8298-23.5989 71.31-22.4124 71.31-21C71.31-19.6158 70.8298-18.4364 69.8694-17.4619C68.9089-16.4873 67.7224-16 66.31-16Z"/>
   <path class="hierarchical-1:secondary SFSymbolsPreview4D4D4D" d="M16.7403 4L91.8794 4C97.6684 4 102.187 2.57394 105.436-0.278171C108.685-3.13028 110.31-7.09732 110.31-12.1793L110.31-60.8208C110.31-65.9027 108.685-69.8698 105.436-72.7219C102.187-75.574 97.6684-77 91.8794-77L16.7403-77C10.9513-77 6.43236-75.574 3.18336-72.7219C-0.0655482-69.8698-1.69-65.9027-1.69-60.8208L-1.69-12.1793C-1.69-7.09732-0.0655482-3.13028 3.18336-0.278171C6.43236 2.57394 10.9513 4 16.7403 4ZM18.2887-11C16.9624-11 15.9678-11.2736 15.3047-11.8207C14.6416-12.3679 14.31-13.2946 14.31-14.6008L14.31-59.3992C14.31-60.7406 14.6416-61.6761 15.3047-62.2057C15.9678-62.7352 16.9624-63 18.2887-63L87.3313-63C88.6966-63 89.701-62.7352 90.3445-62.2057C90.9882-61.6761 91.31-60.7406 91.31-59.3992L91.31-14.6008C91.31-13.2946 90.9882-12.3679 90.3445-11.8207C89.701-11.2736 88.6966-11 87.3313-11L18.2887-11Z"/>
   <path class="hierarchical-2:primary SFSymbolsPreview212121" d="M59.31-58L23.1267-58C21.7909-58 20.6542-57.5 19.7165-56.5C18.7788-55.5 18.31-54.3333 18.31-53C18.31-51.7436 18.7788-50.5962 19.7165-49.5577C20.6542-48.5192 21.7909-48 23.1267-48L59.31-48L59.31-58ZM59.31-26L23.1267-26C21.7909-26 20.6542-25.5 19.7165-24.5C18.7788-23.5 18.31-22.3333 18.31-21C18.31-19.7436 18.7788-18.5961 19.7165-17.5577C20.6542-16.5192 21.7909-16 23.1267-16L59.31-16L59.31-26ZM82.4933-42L46.31-42L46.31-32L82.4933-32C83.8548-32 84.998-32.5064 85.9228-33.5192C86.8476-34.532 87.31-35.6923 87.31-37C87.31-38.3589 86.8476-39.532 85.9228-40.5192C84.998-41.5064 83.8548-42 82.4933-42ZM82.4775-58L72.31-58L72.31-48L82.4775-48C83.8435-48 84.9904-48.5064 85.9183-49.5192C86.8461-50.532 87.31-51.6923 87.31-53C87.31-54.359 86.8461-55.5321 85.9183-56.5192C84.9904-57.5064 83.8435-58 82.4775-58ZM23.2119-42C21.8525-42 20.6956-41.5 19.7414-40.5C18.7871-39.5 18.31-38.3333 18.31-37C18.31-35.7436 18.7871-34.5962 19.7414-33.5577C20.6956-32.5192 21.8525-32 23.2119-32L34.31-32L34.31-42L23.2119-42ZM82.4775-26L72.31-26L72.31-16L82.4775-16C83.8435-16 84.9904-16.5064 85.9183-17.5192C86.8461-18.532 87.31-19.6923 87.31-21C87.31-22.3589 86.8461-23.532 85.9183-24.5192C84.9904-25.5064 83.8435-26 82.4775-26Z"/>
  </g>
  <g id="Regular-S" transform="matrix(1 0 0 1 1401.14 696)">
   <path class="hierarchical-0:tertiary SFSymbolsPreview8E8E8E" d="M63.186-42.7943C64.9465-42.7943 66.5521-43.2271 68.0029-44.0927C69.4537-44.9582 70.6111-46.1177 71.4751-47.5713C72.339-49.0247 72.7709-50.6334 72.7709-52.3971C72.7709-54.1609 72.339-55.7696 71.4751-57.2231C70.6111-58.6766 69.4537-59.8361 68.0029-60.7017C66.5521-61.5672 64.9465-62 63.186-62C61.4255-62 59.8199-61.5672 58.369-60.7017C56.9183-59.8361 55.761-58.6766 54.897-57.2231C54.033-55.7696 53.6011-54.1609 53.6011-52.3971C53.6011-50.6334 54.033-49.0247 54.897-47.5713C55.761-46.1177 56.9183-44.9582 58.369-44.0927C59.8199-43.2271 61.4255-42.7943 63.186-42.7943ZM63.186-9C64.9465-9 66.5521-9.43278 68.0029-10.2984C69.4537-11.1639 70.6111-12.3234 71.4751-13.7769C72.339-15.2304 72.7709-16.8391 72.7709-18.6028C72.7709-20.3667 72.339-21.9672 71.4751-23.4043C70.6111-24.8415 69.4537-25.9928 68.0029-26.8584C66.5521-27.724 64.9465-28.1567 63.186-28.1567C61.4255-28.1567 59.8199-27.724 58.369-26.8584C56.9183-25.9928 55.761-24.8415 54.897-23.4043C54.033-21.9672 53.6011-20.3667 53.6011-18.6028C53.6011-16.8391 54.033-15.2304 54.897-13.7769C55.761-12.3234 56.9183-11.1639 58.369-10.2984C59.8199-9.43278 61.4255-9 63.186-9ZM36.6317-25.3955C38.3923-25.3955 39.9979-25.8282 41.4487-26.6938C42.8995-27.5594 44.0569-28.7189 44.9208-30.1724C45.7848-31.6259 46.2168-33.2346 46.2168-34.9983C46.2168-36.7621 45.7848-38.3626 44.9208-39.7997C44.0569-41.2369 42.8995-42.3883 41.4487-43.2538C39.9979-44.1194 38.3923-44.5522 36.6317-44.5522C34.8712-44.5522 33.2656-44.1194 31.8149-43.2538C30.3641-42.3883 29.2067-41.2369 28.3428-39.7997C27.4788-38.3626 27.0468-36.7621 27.0468-34.9983C27.0468-33.2346 27.4788-31.6259 28.3428-30.1724C29.2067-28.7189 30.3641-27.5594 31.8149-26.6938C33.2656-25.8282 34.8712-25.3955 36.6317-25.3955ZM36.6317-30.6379C35.4255-30.6379 34.3986-31.0625 33.5509-31.9117C32.7032-32.7609 32.2794-33.7898 32.2794-34.9983C32.2794-36.2395 32.7032-37.2765 33.5509-38.1095C34.3986-38.9424 35.4255-39.3588 36.6317-39.3588C37.8706-39.3588 38.9057-38.9424 39.7371-38.1095C40.5685-37.2765 40.9842-36.2395 40.9842-34.9983C40.9842-33.7898 40.5685-32.7609 39.7371-31.9117C38.9057-31.0625 37.8706-30.6379 36.6317-30.6379ZM63.186-48.0367C61.9797-48.0367 60.9528-48.4613 60.1051-49.3106C59.2575-50.1598 58.8336-51.1886 58.8336-52.3971C58.8336-53.6383 59.2575-54.6754 60.1051-55.5083C60.9528-56.3412 61.9797-56.7576 63.186-56.7576C64.4249-56.7576 65.46-56.3412 66.2913-55.5083C67.1227-54.6754 67.5383-53.6383 67.5383-52.3971C67.5383-51.1886 67.1227-50.1598 66.2913-49.3106C65.46-48.4613 64.4249-48.0367 63.186-48.0367ZM63.186-14.2424C61.9797-14.2424 60.9528-14.667 60.1051-15.5162C59.2575-16.3655 58.8336-17.3943 58.8336-18.6028C58.8336-19.8441 59.2575-20.8811 60.1051-21.714C60.9528-22.5469 61.9797-22.9633 63.186-22.9633C64.4249-22.9633 65.46-22.5469 66.2913-21.714C67.1227-20.8811 67.5383-19.8441 67.5383-18.6028C67.5383-17.3943 67.1227-16.3655 66.2913-15.5162C65.46-14.667 64.4249-14.2424 63.186-14.2424Z"/>
   <path class="hierarchical-1:secondary SFSymbolsPreview4D4D4D" d="M13.3317 0L84.3881 0C88.9315 0 92.3126-1.02263 94.5315-3.0679C96.7505-5.11317 97.86-8.18108 97.86-12.2716L97.86-58.7284C97.86-62.8189 96.7505-65.8868 94.5315-67.9321C92.3126-69.9774 88.9315-71 84.3881-71L13.3317-71C8.85871-71 5.49519-69.9774 3.2411-67.9321C0.987034-65.8868-0.14-62.8189-0.14-58.7284L-0.14-12.2716C-0.14-8.18108 0.987034-5.11317 3.2411-3.0679C5.49519-1.02263 8.85871 0 13.3317 0ZM14.7732-7C12.8893-7 11.4328-7.47175 10.4037-8.41524C9.37456-9.35873 8.86-10.7415 8.86-12.5634L8.86-58.4367C8.86-60.2911 9.37456-61.6819 10.4037-62.6092C11.4328-63.5364 12.8893-64 14.7732-64L84.9469-64C86.8307-64 88.2872-63.5364 89.3163-62.6092C90.3454-61.6819 90.86-60.2911 90.86-58.4367L90.86-12.5634C90.86-10.7415 90.3454-9.35873 89.3163-8.41524C88.2872-7.47175 86.8307-7 84.9469-7L14.7732-7Z"/>
   <path class="hierarchical-2:primary SFSymbolsPreview212121" d="M57.4644-55.9247L14.381-55.9247C13.4029-55.9247 12.5716-55.5818 11.8869-54.8959C11.2023-54.21 10.86-53.3771 10.86-52.3971C10.86-51.4173 11.2023-50.5844 11.8869-49.8985C12.5716-49.2125 13.4029-48.8696 14.381-48.8696L57.4644-48.8696L57.4644-55.9247ZM57.171-22.1305L14.381-22.1305C13.4029-22.1305 12.5716-21.7875 11.8869-21.1016C11.2023-20.4157 10.86-19.5828 10.86-18.6028C10.86-17.5903 11.2023-16.7493 11.8869-16.0797C12.5716-15.4101 13.4029-15.0753 14.381-15.0753L57.171-15.0753L57.171-22.1305ZM85.339-38.5259L42.6957-38.5259L42.6957-31.4708L85.339-31.4708C86.317-31.4708 87.1484-31.8137 87.833-32.4996C88.5177-33.1855 88.86-34.0184 88.86-34.9983C88.86-35.9782 88.5177-36.8111 87.833-37.497C87.1484-38.1829 86.317-38.5259 85.339-38.5259ZM85.4856-55.9247L69.25-55.9247L69.25-48.8696L85.4856-48.8696C86.3985-48.8696 87.1891-49.2125 87.8575-49.8985C88.5258-50.5844 88.86-51.4173 88.86-52.3971C88.86-53.3771 88.5258-54.21 87.8575-54.8959C87.1891-55.5818 86.3985-55.9247 85.4856-55.9247ZM14.1854-38.5259C13.3051-38.5259 12.5309-38.1829 11.8625-37.497C11.1942-36.8111 10.86-35.9782 10.86-34.9983C10.86-34.0184 11.1942-33.1855 11.8625-32.4996C12.5309-31.8137 13.3051-31.4708 14.1854-31.4708L29.9321-31.4708L29.9321-38.5259L14.1854-38.5259ZM85.4856-22.1305L69.9346-22.1305L69.9346-15.0753L85.4856-15.0753C86.3985-15.0753 87.1891-15.4101 87.8575-16.0797C88.5258-16.7493 88.86-17.5903 88.86-18.6028C88.86-19.5828 88.5258-20.4157 87.8575-21.1016C87.1891-21.7875 86.3985-22.1305 85.4856-22.1305Z"/>
  </g>
  <g id="Ultralight-S" transform="matrix(1 0 0 1 513.202 696)">
   <path class="hierarchical-0:tertiary SFSymbolsPreview8E8E8E" d="M65.0117-48.0254C66.4114-48.0254 67.681-48.3672 68.8203-49.0508C69.9596-49.7344 70.8711-50.6459 71.5547-51.7852C72.2383-52.9245 72.5801-54.194 72.5801-55.5938C72.5801-56.9935 72.2383-58.263 71.5547-59.4023C70.8711-60.5416 69.9596-61.4531 68.8203-62.1367C67.681-62.8203 66.4114-63.1621 65.0117-63.1621C63.612-63.1621 62.3424-62.8203 61.2031-62.1367C60.0638-61.4531 59.1523-60.5416 58.4688-59.4023C57.7852-58.263 57.4434-56.9935 57.4434-55.5938C57.4434-54.194 57.7852-52.9245 58.4688-51.7852C59.1523-50.6459 60.0638-49.7344 61.2031-49.0508C62.3424-48.3672 63.612-48.0254 65.0117-48.0254ZM65.0117-7.00391C66.4114-7.00391 67.681-7.34571 68.8203-8.0293C69.9596-8.71289 70.8711-9.63249 71.5547-10.7881C72.2383-11.9437 72.5801-13.2051 72.5801-14.5723C72.5801-15.972 72.2383-17.2497 71.5547-18.4053C70.8711-19.5609 69.9596-20.4723 68.8203-21.1396C67.681-21.8069 66.4114-22.1406 65.0117-22.1406C63.612-22.1406 62.3424-21.8069 61.2031-21.1396C60.0638-20.4723 59.1523-19.5609 58.4688-18.4053C57.7852-17.2497 57.4434-15.972 57.4434-14.5723C57.4434-13.2051 57.7852-11.9437 58.4688-10.7881C59.1523-9.63249 60.0638-8.71289 61.2031-8.0293C62.3424-7.34571 63.612-7.00391 65.0117-7.00391ZM25.9102-27.4414C27.2773-27.4414 28.5387-27.7832 29.6943-28.4668C30.8499-29.1504 31.7695-30.0619 32.4531-31.2012C33.1367-32.3405 33.4785-33.6101 33.4785-35.0098C33.4785-36.4095 33.1367-37.6791 32.4531-38.8184C31.7695-39.9577 30.8499-40.8691 29.6943-41.5527C28.5387-42.2363 27.2773-42.5781 25.9102-42.5781C24.5104-42.5781 23.2409-42.2363 22.1016-41.5527C20.9623-40.8691 20.0508-39.9577 19.3672-38.8184C18.6836-37.6791 18.3418-36.4095 18.3418-35.0098C18.3418-33.6101 18.6836-32.3405 19.3672-31.2012C20.0508-30.0619 20.9623-29.1504 22.1016-28.4668C23.2409-27.7832 24.5104-27.4414 25.9102-27.4414ZM25.9102-29.9316C24.4779-29.9316 23.2653-30.4362 22.2725-31.4453C21.2796-32.4544 20.7832-33.6589 20.7832-35.0586C20.7832-36.4909 21.2796-37.6953 22.2725-38.6719C23.2653-39.6484 24.4779-40.1367 25.9102-40.1367C27.3425-40.1367 28.5469-39.6484 29.5234-38.6719C30.5-37.6953 30.9883-36.4909 30.9883-35.0586C30.9883-33.6589 30.5-32.4544 29.5234-31.4453C28.5469-30.4362 27.3425-29.9316 25.9102-29.9316ZM65.0117-50.5156C63.5794-50.5156 62.375-51.012 61.3984-52.0049C60.4219-52.9977 59.9336-54.2103 59.9336-55.6426C59.9336-57.0423 60.4219-58.2386 61.3984-59.2314C62.375-60.2243 63.5794-60.7207 65.0117-60.7207C66.444-60.7207 67.6485-60.2243 68.625-59.2314C69.6015-58.2386 70.0898-57.0423 70.0898-55.6426C70.0898-54.2103 69.6015-52.9977 68.625-52.0049C67.6485-51.012 66.444-50.5156 65.0117-50.5156ZM65.0117-9.54297C63.5794-9.54297 62.375-10.0312 61.3984-11.0078C60.4219-11.9844 59.9336-13.1888 59.9336-14.6211C59.9336-16.0534 60.4219-17.2578 61.3984-18.2344C62.375-19.2109 63.5794-19.6992 65.0117-19.6992C66.444-19.6992 67.6485-19.2109 68.625-18.2344C69.6015-17.2578 70.0898-16.0534 70.0898-14.6211C70.0898-13.1888 69.6015-11.9844 68.625-11.0078C67.6485-10.0312 66.444-9.54297 65.0117-9.54297Z"/>
   <path class="hierarchical-1:secondary SFSymbolsPreview4D4D4D" d="M10.3195 0L82.2764 0C85.7665 0 88.3926-0.902977 90.1547-2.70893C91.9169-4.51489 92.798-7.12063 92.798-10.5262L92.798-60.4222C92.798-63.8277 91.9169-66.4421 90.1547-68.2653C88.3926-70.0884 85.7665-71 82.2764-71L10.3195-71C6.86372-71 4.24617-70.1056 2.46689-68.3168C0.687631-66.528-0.202-63.8965-0.202-60.4222L-0.202-10.5262C-0.202-7.08623 0.687631-4.47189 2.46689-2.68314C4.24617-0.894378 6.86372 0 10.3195 0ZM10.1708-2C7.41432-2 5.32972-2.71203 3.91699-4.13609C2.50433-5.56014 1.798-7.66149 1.798-10.4401L1.798-60.5598C1.798-63.3385 2.50433-65.4399 3.91699-66.8639C5.32972-68.288 7.41432-69 10.1708-69L82.4252-69C85.1128-69 87.1802-68.288 88.6272-66.8639C90.0744-65.4399 90.798-63.3385 90.798-60.5598L90.798-10.4401C90.798-7.66149 90.0744-5.56014 88.6272-4.13609C87.1802-2.71203 85.1128-2 82.4252-2L10.1708-2Z"/>
   <path class="hierarchical-2:primary SFSymbolsPreview212121" d="M58.7656-56.6191L9.9956-56.6191C9.63908-56.6191 9.34495-56.5133 9.11321-56.3018C8.88148-56.0902 8.76562-55.8216 8.76562-55.4961C8.76562-55.2031 8.88148-54.9427 9.11321-54.7148C9.34495-54.4869 9.63908-54.373 9.9956-54.373L58.7656-54.373L58.7656-56.6191ZM58.7656-15.7441L9.98776-15.7441C9.63351-15.7441 9.34126-15.6383 9.11099-15.4268C8.88074-15.2152 8.76562-14.9466 8.76562-14.6211C8.76562-14.3281 8.88074-14.0758 9.11099-13.8643C9.34126-13.6527 9.63351-13.5469 9.98776-13.5469L58.7656-13.5469L58.7656-15.7441ZM80.9798-36.1816L32.252-36.1816L32.252-33.9355L80.9798-33.9355C81.3486-33.9355 81.6528-34.0494 81.8925-34.2773C82.1322-34.5052 82.252-34.7656 82.252-35.0586C82.252-35.3841 82.1322-35.6527 81.8925-35.8643C81.6528-36.0758 81.3486-36.1816 80.9798-36.1816ZM81.4197-56.6191L71.252-56.6191L71.252-54.373L81.4197-54.373C81.661-54.373 81.86-54.4869 82.0168-54.7148C82.1736-54.9427 82.252-55.2031 82.252-55.4961C82.252-55.8216 82.1736-56.0902 82.0168-56.3018C81.86-56.5133 81.661-56.6191 81.4197-56.6191ZM9.45901-36.1816C9.26992-36.1816 9.10708-36.0758 8.97049-35.8643C8.83391-35.6527 8.76562-35.3841 8.76562-35.0586C8.76562-34.7656 8.83391-34.5052 8.97049-34.2773C9.10708-34.0494 9.26992-33.9355 9.45901-33.9355L19.7656-33.9355L19.7656-36.1816L9.45901-36.1816ZM81.4305-15.7441L71.252-15.7441L71.252-13.5469L81.4305-13.5469C81.6686-13.5469 81.8651-13.6527 82.0198-13.8643C82.1746-14.0758 82.252-14.3281 82.252-14.6211C82.252-14.9466 82.1746-15.2152 82.0198-15.4268C81.8651-15.6383 81.6686-15.7441 81.4305-15.7441Z"/>
  </g>
 </g>
</svg>
