<?xml version="1.0" encoding="UTF-8"?>
<!--Generator: Apple Native CoreSVG 175-->
<!DOCTYPE svg
PUBLIC "-//W3C//DTD SVG 1.1//EN"
       "http://www.w3.org/Graphics/SVG/1.1/DTD/svg11.dtd">
<svg version="1.1" xmlns="http://www.w3.org/2000/svg" xmlns:xlink="http://www.w3.org/1999/xlink" width="3300" height="2200">
 <!--glyph: "", point size: 100.0, font version: "17.1d1e1", template writer version: "65.1"-->
 <style>.hierarchical-0:secondary {fill:#4D4D4D}
.hierarchical-1:primary {fill:#212121}

.SFSymbolsPreview212121 {fill:#212121;opacity:1.0}
.SFSymbolsPreview4D4D4D {fill:#4D4D4D;opacity:1.0}
</style>
 <g id="Notes">
  <rect height="2200" id="artboard" style="fill:white;opacity:1" width="3300" x="0" y="0"/>
  <line style="fill:none;stroke:black;opacity:1;stroke-width:0.5;" x1="263" x2="3036" y1="292" y2="292"/>
  <text style="stroke:none;fill:black;font-family:sans-serif;font-size:13;font-weight:bold;" transform="matrix(1 0 0 1 263 322)">Weight/Scale Variations</text>
  <text style="stroke:none;fill:black;font-family:sans-serif;font-size:13;text-anchor:middle;" transform="matrix(1 0 0 1 559.711 322)">Ultralight</text>
  <text style="stroke:none;fill:black;font-family:sans-serif;font-size:13;text-anchor:middle;" transform="matrix(1 0 0 1 856.422 322)">Thin</text>
  <text style="stroke:none;fill:black;font-family:sans-serif;font-size:13;text-anchor:middle;" transform="matrix(1 0 0 1 1153.13 322)">Light</text>
  <text style="stroke:none;fill:black;font-family:sans-serif;font-size:13;text-anchor:middle;" transform="matrix(1 0 0 1 1449.84 322)">Regular</text>
  <text style="stroke:none;fill:black;font-family:sans-serif;font-size:13;text-anchor:middle;" transform="matrix(1 0 0 1 1746.56 322)">Medium</text>
  <text style="stroke:none;fill:black;font-family:sans-serif;font-size:13;text-anchor:middle;" transform="matrix(1 0 0 1 2043.27 322)">Semibold</text>
  <text style="stroke:none;fill:black;font-family:sans-serif;font-size:13;text-anchor:middle;" transform="matrix(1 0 0 1 2339.98 322)">Bold</text>
  <text style="stroke:none;fill:black;font-family:sans-serif;font-size:13;text-anchor:middle;" transform="matrix(1 0 0 1 2636.69 322)">Heavy</text>
  <text style="stroke:none;fill:black;font-family:sans-serif;font-size:13;text-anchor:middle;" transform="matrix(1 0 0 1 2933.4 322)">Black</text>
  <line style="fill:none;stroke:black;opacity:1;stroke-width:0.5;" x1="263" x2="3036" y1="1903" y2="1903"/>
  <g transform="matrix(1 0 0 1 263 1933)">
   <path d="M9.24805 0.830078Q10.8691 0.830078 12.2949 0.214844Q13.7207-0.400391 14.8096-1.49414Q15.8984-2.58789 16.5186-4.01367Q17.1387-5.43945 17.1387-7.05078Q17.1387-8.66211 16.5186-10.0879Q15.8984-11.5137 14.8047-12.6074Q13.7109-13.7012 12.2852-14.3164Q10.8594-14.9316 9.23828-14.9316Q7.62695-14.9316 6.20117-14.3164Q4.77539-13.7012 3.69141-12.6074Q2.60742-11.5137 1.9873-10.0879Q1.36719-8.66211 1.36719-7.05078Q1.36719-5.43945 1.9873-4.01367Q2.60742-2.58789 3.69629-1.49414Q4.78516-0.400391 6.21094 0.214844Q7.63672 0.830078 9.24805 0.830078ZM9.24805-0.654297Q7.91992-0.654297 6.7627-1.14746Q5.60547-1.64062 4.73145-2.51953Q3.85742-3.39844 3.36426-4.56055Q2.87109-5.72266 2.87109-7.05078Q2.87109-8.37891 3.35938-9.54102Q3.84766-10.7031 4.72168-11.582Q5.5957-12.4609 6.75293-12.9541Q7.91016-13.4473 9.23828-13.4473Q10.5762-13.4473 11.7334-12.9541Q12.8906-12.4609 13.7695-11.582Q14.6484-10.7031 15.1465-9.54102Q15.6445-8.37891 15.6445-7.05078Q15.6445-5.72266 15.1514-4.56055Q14.6582-3.39844 13.7842-2.51953Q12.9102-1.64062 11.748-1.14746Q10.5859-0.654297 9.24805-0.654297ZM5.6543-7.05078Q5.6543-6.72852 5.85938-6.52832Q6.06445-6.32812 6.40625-6.32812L8.51562-6.32812L8.51562-4.20898Q8.51562-3.88672 8.71094-3.67676Q8.90625-3.4668 9.23828-3.4668Q9.56055-3.4668 9.77051-3.67676Q9.98047-3.88672 9.98047-4.20898L9.98047-6.32812L12.0898-6.32812Q12.4219-6.32812 12.627-6.52832Q12.832-6.72852 12.832-7.05078Q12.832-7.38281 12.627-7.58789Q12.4219-7.79297 12.0898-7.79297L9.98047-7.79297L9.98047-9.90234Q9.98047-10.2344 9.77051-10.4443Q9.56055-10.6543 9.23828-10.6543Q8.90625-10.6543 8.71094-10.4443Q8.51562-10.2344 8.51562-9.90234L8.51562-7.79297L6.40625-7.79297Q6.06445-7.79297 5.85938-7.58789Q5.6543-7.38281 5.6543-7.05078Z"/>
  </g>
  <g transform="matrix(1 0 0 1 281.867 1933)">
   <path d="M11.709 2.91016Q13.75 2.91016 15.5518 2.12891Q17.3535 1.34766 18.7305-0.0292969Q20.1074-1.40625 20.8887-3.20801Q21.6699-5.00977 21.6699-7.05078Q21.6699-9.0918 20.8887-10.8936Q20.1074-12.6953 18.7305-14.0723Q17.3535-15.4492 15.5469-16.2305Q13.7402-17.0117 11.6992-17.0117Q9.6582-17.0117 7.85645-16.2305Q6.05469-15.4492 4.68262-14.0723Q3.31055-12.6953 2.5293-10.8936Q1.74805-9.0918 1.74805-7.05078Q1.74805-5.00977 2.5293-3.20801Q3.31055-1.40625 4.6875-0.0292969Q6.06445 1.34766 7.86621 2.12891Q9.66797 2.91016 11.709 2.91016ZM11.709 1.25Q9.98047 1.25 8.47656 0.605469Q6.97266-0.0390625 5.83496-1.17676Q4.69727-2.31445 4.05762-3.81836Q3.41797-5.32227 3.41797-7.05078Q3.41797-8.7793 4.05762-10.2832Q4.69727-11.7871 5.83008-12.9297Q6.96289-14.0723 8.4668-14.7119Q9.9707-15.3516 11.6992-15.3516Q13.4277-15.3516 14.9316-14.7119Q16.4355-14.0723 17.5781-12.9297Q18.7207-11.7871 19.3652-10.2832Q20.0098-8.7793 20.0098-7.05078Q20.0098-5.32227 19.3701-3.81836Q18.7305-2.31445 17.5928-1.17676Q16.4551-0.0390625 14.9463 0.605469Q13.4375 1.25 11.709 1.25ZM7.17773-7.05078Q7.17773-6.69922 7.41211-6.47461Q7.64648-6.25 8.01758-6.25L10.8887-6.25L10.8887-3.36914Q10.8887-2.99805 11.1133-2.76855Q11.3379-2.53906 11.6895-2.53906Q12.0605-2.53906 12.29-2.76855Q12.5195-2.99805 12.5195-3.36914L12.5195-6.25L15.4004-6.25Q15.7715-6.25 16.001-6.47461Q16.2305-6.69922 16.2305-7.05078Q16.2305-7.42188 16.001-7.65137Q15.7715-7.88086 15.4004-7.88086L12.5195-7.88086L12.5195-10.752Q12.5195-11.1328 12.29-11.3623Q12.0605-11.5918 11.6895-11.5918Q11.3379-11.5918 11.1133-11.3574Q10.8887-11.123 10.8887-10.752L10.8887-7.88086L8.01758-7.88086Q7.63672-7.88086 7.40723-7.65137Q7.17773-7.42188 7.17773-7.05078Z"/>
  </g>
  <g transform="matrix(1 0 0 1 305.646 1933)">
   <path d="M14.9707 5.66406Q17.0605 5.66406 18.96 5.01465Q20.8594 4.36523 22.4512 3.19336Q24.043 2.02148 25.2197 0.429688Q26.3965-1.16211 27.0459-3.06641Q27.6953-4.9707 27.6953-7.05078Q27.6953-9.14062 27.0459-11.04Q26.3965-12.9395 25.2197-14.5312Q24.043-16.123 22.4512-17.2998Q20.8594-18.4766 18.9551-19.126Q17.0508-19.7754 14.9609-19.7754Q12.8711-19.7754 10.9717-19.126Q9.07227-18.4766 7.48535-17.2998Q5.89844-16.123 4.72168-14.5312Q3.54492-12.9395 2.90039-11.04Q2.25586-9.14062 2.25586-7.05078Q2.25586-4.9707 2.90527-3.06641Q3.55469-1.16211 4.72656 0.429688Q5.89844 2.02148 7.49023 3.19336Q9.08203 4.36523 10.9814 5.01465Q12.8809 5.66406 14.9707 5.66406ZM14.9707 3.84766Q13.1641 3.84766 11.5283 3.2959Q9.89258 2.74414 8.53516 1.74805Q7.17773 0.751953 6.17676-0.610352Q5.17578-1.97266 4.62891-3.6084Q4.08203-5.24414 4.08203-7.05078Q4.08203-8.86719 4.62891-10.5029Q5.17578-12.1387 6.17188-13.501Q7.16797-14.8633 8.52539-15.8594Q9.88281-16.8555 11.5186-17.4023Q13.1543-17.9492 14.9609-17.9492Q16.7773-17.9492 18.4131-17.4023Q20.0488-16.8555 21.4111-15.8594Q22.7734-14.8633 23.7695-13.501Q24.7656-12.1387 25.3174-10.5029Q25.8691-8.86719 25.8691-7.05078Q25.8789-5.24414 25.332-3.6084Q24.7852-1.97266 23.7842-0.610352Q22.7832 0.751953 21.4209 1.74805Q20.0586 2.74414 18.4229 3.2959Q16.7871 3.84766 14.9707 3.84766ZM9.19922-7.05078Q9.19922-6.66992 9.45801-6.4209Q9.7168-6.17188 10.1172-6.17188L14.0625-6.17188L14.0625-2.2168Q14.0625-1.81641 14.3115-1.55762Q14.5605-1.29883 14.9512-1.29883Q15.3516-1.29883 15.6104-1.55273Q15.8691-1.80664 15.8691-2.2168L15.8691-6.17188L19.8242-6.17188Q20.2246-6.17188 20.4785-6.4209Q20.7324-6.66992 20.7324-7.05078Q20.7324-7.46094 20.4785-7.71484Q20.2246-7.96875 19.8242-7.96875L15.8691-7.96875L15.8691-11.9141Q15.8691-12.3242 15.6104-12.583Q15.3516-12.8418 14.9512-12.8418Q14.5605-12.8418 14.3115-12.583Q14.0625-12.3242 14.0625-11.9141L14.0625-7.96875L10.1172-7.96875Q9.70703-7.96875 9.45312-7.71484Q9.19922-7.46094 9.19922-7.05078Z"/>
  </g>
  <text style="stroke:none;fill:black;font-family:sans-serif;font-size:13;font-weight:bold;" transform="matrix(1 0 0 1 263 1953)">Design Variations</text>
  <text style="stroke:none;fill:black;font-family:sans-serif;font-size:13;" transform="matrix(1 0 0 1 263 1971)">Symbols are supported in up to nine weights and three scales.</text>
  <text style="stroke:none;fill:black;font-family:sans-serif;font-size:13;" transform="matrix(1 0 0 1 263 1989)">For optimal layout with text and other symbols, vertically align</text>
  <text style="stroke:none;fill:black;font-family:sans-serif;font-size:13;" transform="matrix(1 0 0 1 263 2007)">symbols with the adjacent text.</text>
  <line style="fill:none;stroke:#00AEEF;stroke-width:0.5;opacity:1.0;" x1="776" x2="776" y1="1919" y2="1933"/>
  <g transform="matrix(1 0 0 1 776 1933)">
   <path d="M3.31055 0.15625Q3.70117 0.15625 3.91602-0.00976562Q4.13086-0.175781 4.26758-0.585938L5.52734-4.0332L11.2891-4.0332L12.5488-0.585938Q12.6855-0.175781 12.9004-0.00976562Q13.1152 0.15625 13.4961 0.15625Q13.8867 0.15625 14.1162-0.0585938Q14.3457-0.273438 14.3457-0.644531Q14.3457-0.869141 14.2383-1.17188L9.6582-13.3691Q9.48242-13.8184 9.17969-14.043Q8.87695-14.2676 8.4082-14.2676Q7.5-14.2676 7.17773-13.3789L2.59766-1.16211Q2.49023-0.859375 2.49023-0.634766Q2.49023-0.263672 2.70996-0.0537109Q2.92969 0.15625 3.31055 0.15625ZM6.00586-5.51758L8.37891-12.0898L8.42773-12.0898L10.8008-5.51758Z"/>
  </g>
  <line style="fill:none;stroke:#00AEEF;stroke-width:0.5;opacity:1.0;" x1="793.197" x2="793.197" y1="1919" y2="1933"/>
  <text style="stroke:none;fill:black;font-family:sans-serif;font-size:13;font-weight:bold;" transform="matrix(1 0 0 1 776 1953)">Margins</text>
  <text style="stroke:none;fill:black;font-family:sans-serif;font-size:13;" transform="matrix(1 0 0 1 776 1971)">Leading and trailing margins on the left and right side of each symbol</text>
  <text style="stroke:none;fill:black;font-family:sans-serif;font-size:13;" transform="matrix(1 0 0 1 776 1989)">can be adjusted by modifying the x-location of the margin guidelines.</text>
  <text style="stroke:none;fill:black;font-family:sans-serif;font-size:13;" transform="matrix(1 0 0 1 776 2007)">Modifications are automatically applied proportionally to all</text>
  <text style="stroke:none;fill:black;font-family:sans-serif;font-size:13;" transform="matrix(1 0 0 1 776 2025)">scales and weights.</text>
  <g transform="matrix(1 0 0 1 1289 1933)">
   <path d="M2.8418 1.86523L4.54102 3.57422Q5.18555 4.22852 5.90332 4.17969Q6.62109 4.13086 7.31445 3.35938L18.0078-8.42773L17.041-9.4043L6.42578 2.27539Q6.16211 2.57812 5.89355 2.61719Q5.625 2.65625 5.27344 2.30469L4.10156 1.14258Q3.75 0.791016 3.79395 0.522461Q3.83789 0.253906 4.14062-0.0195312L15.6152-10.8203L14.6387-11.7871L3.04688-0.898438Q2.30469-0.214844 2.25098 0.498047Q2.19727 1.21094 2.8418 1.86523ZM9.25781-16.3281Q8.94531-16.0254 8.90625-15.6348Q8.86719-15.2441 9.04297-14.9512Q9.21875-14.6777 9.55566-14.541Q9.89258-14.4043 10.3809-14.5215Q11.4746-14.7754 12.5977-14.7314Q13.7207-14.6875 14.7949-13.9844L14.209-12.5293Q13.9551-11.9043 14.0674-11.4404Q14.1797-10.9766 14.5801-10.5664L16.875-8.25195Q17.2363-7.88086 17.5781-7.82227Q17.9199-7.76367 18.3398-7.8418L19.4043-8.03711L20.0684-7.36328L20.0293-6.80664Q20-6.43555 20.1221-6.12305Q20.2441-5.81055 20.6055-5.44922L21.3672-4.70703Q21.7285-4.3457 22.1533-4.33105Q22.5781-4.31641 22.9297-4.66797L25.8398-7.58789Q26.1914-7.93945 26.1816-8.35449Q26.1719-8.76953 25.8105-9.13086L25.0391-9.89258Q24.6875-10.2539 24.3799-10.3857Q24.0723-10.5176 23.7109-10.4883L23.1348-10.4395L22.4902-11.0742L22.7344-12.1973Q22.832-12.6172 22.6953-12.9834Q22.5586-13.3496 22.1191-13.7891L19.9219-15.9766Q18.6719-17.2168 17.2607-17.8369Q15.8496-18.457 14.4189-18.4814Q12.9883-18.5059 11.665-17.959Q10.3418-17.4121 9.25781-16.3281ZM10.752-15.957Q11.6602-16.6211 12.7002-16.9043Q13.7402-17.1875 14.8047-17.085Q15.8691-16.9824 16.8701-16.5137Q17.8711-16.0449 18.7012-15.2051L21.1328-12.793Q21.3086-12.6172 21.3525-12.4512Q21.3965-12.2852 21.3379-12.0312L21.0156-10.5469L22.5195-9.0625L23.5059-9.12109Q23.6914-9.13086 23.7891-9.09668Q23.8867-9.0625 24.0332-8.91602L24.6094-8.33984L22.168-5.89844L21.5918-6.47461Q21.4453-6.62109 21.4062-6.71875Q21.3672-6.81641 21.377-7.01172L21.4453-7.98828L19.9512-9.47266L18.4277-9.21875Q18.1836-9.16992 18.042-9.2041Q17.9004-9.23828 17.7148-9.41406L15.7129-11.416Q15.5176-11.5918 15.4932-11.7529Q15.4688-11.9141 15.5859-12.1875L16.4648-14.2773Q15.293-15.3711 13.8281-15.791Q12.3633-16.2109 10.8398-15.7617Q10.7227-15.7324 10.6885-15.8057Q10.6543-15.8789 10.752-15.957Z"/>
  </g>
  <text style="stroke:none;fill:black;font-family:sans-serif;font-size:13;font-weight:bold;" transform="matrix(1 0 0 1 1289 1953)">Exporting</text>
  <text style="stroke:none;fill:black;font-family:sans-serif;font-size:13;" transform="matrix(1 0 0 1 1289 1971)">Symbols should be outlined when exporting to ensure the</text>
  <text style="stroke:none;fill:black;font-family:sans-serif;font-size:13;" transform="matrix(1 0 0 1 1289 1989)">design is preserved when submitting to Xcode.</text>
  <text id="template-version" style="stroke:none;fill:black;font-family:sans-serif;font-size:13;text-anchor:end;" transform="matrix(1 0 0 1 3036 1933)">Template v.3.0</text>
  <text style="stroke:none;fill:black;font-family:sans-serif;font-size:13;text-anchor:end;" transform="matrix(1 0 0 1 3036 1951)">Requires Xcode 13 or greater</text>
  <text id="descriptive-name" style="stroke:none;fill:black;font-family:sans-serif;font-size:13;text-anchor:end;" transform="matrix(1 0 0 1 3036 1969)">Generated from person.text.rectangle2</text>
  <text style="stroke:none;fill:black;font-family:sans-serif;font-size:13;text-anchor:end;" transform="matrix(1 0 0 1 3036 1987)">Typeset at 100 points</text>
  <text style="stroke:none;fill:black;font-family:sans-serif;font-size:13;" transform="matrix(1 0 0 1 263 726)">Small</text>
  <text style="stroke:none;fill:black;font-family:sans-serif;font-size:13;" transform="matrix(1 0 0 1 263 1156)">Medium</text>
  <text style="stroke:none;fill:black;font-family:sans-serif;font-size:13;" transform="matrix(1 0 0 1 263 1586)">Large</text>
 </g>
 <g id="Guides">
  <g id="H-reference" style="fill:#27AAE1;stroke:none;" transform="matrix(1 0 0 1 339 696)">
   <path d="M0.976562 0L3.66211 0L29.3457-67.1387L30.0293-67.1387L30.0293-70.459L28.125-70.459ZM11.6699-24.4629L46.9727-24.4629L46.2402-26.709L12.4512-26.709ZM55.127 0L57.7637 0L30.6152-70.459L29.4434-70.459L29.4434-67.1387Z"/>
  </g>
  <line id="Baseline-S" style="fill:none;stroke:#27AAE1;opacity:1;stroke-width:0.5;" x1="263" x2="3036" y1="696" y2="696"/>
  <line id="Capline-S" style="fill:none;stroke:#27AAE1;opacity:1;stroke-width:0.5;" x1="263" x2="3036" y1="625.541" y2="625.541"/>
  <g id="H-reference" style="fill:#27AAE1;stroke:none;" transform="matrix(1 0 0 1 339 1126)">
   <path d="M0.976562 0L3.66211 0L29.3457-67.1387L30.0293-67.1387L30.0293-70.459L28.125-70.459ZM11.6699-24.4629L46.9727-24.4629L46.2402-26.709L12.4512-26.709ZM55.127 0L57.7637 0L30.6152-70.459L29.4434-70.459L29.4434-67.1387Z"/>
  </g>
  <line id="Baseline-M" style="fill:none;stroke:#27AAE1;opacity:1;stroke-width:0.5;" x1="263" x2="3036" y1="1126" y2="1126"/>
  <line id="Capline-M" style="fill:none;stroke:#27AAE1;opacity:1;stroke-width:0.5;" x1="263" x2="3036" y1="1055.54" y2="1055.54"/>
  <g id="H-reference" style="fill:#27AAE1;stroke:none;" transform="matrix(1 0 0 1 339 1556)">
   <path d="M0.976562 0L3.66211 0L29.3457-67.1387L30.0293-67.1387L30.0293-70.459L28.125-70.459ZM11.6699-24.4629L46.9727-24.4629L46.2402-26.709L12.4512-26.709ZM55.127 0L57.7637 0L30.6152-70.459L29.4434-70.459L29.4434-67.1387Z"/>
  </g>
  <line id="Baseline-L" style="fill:none;stroke:#27AAE1;opacity:1;stroke-width:0.5;" x1="263" x2="3036" y1="1556" y2="1556"/>
  <line id="Capline-L" style="fill:none;stroke:#27AAE1;opacity:1;stroke-width:0.5;" x1="263" x2="3036" y1="1485.54" y2="1485.54"/>
  <line id="left-margin-Ultralight-S" style="fill:none;stroke:#00AEEF;stroke-width:0.5;opacity:1.0;" x1="513.201" x2="513.201" y1="600.784" y2="720.121"/>
  <line id="right-margin-Ultralight-S" style="fill:none;stroke:#FF3B30;stroke-width:0.5;opacity:1.0;" x1="606.221" x2="606.221" y1="600.784" y2="720.121"/>
  <line id="left-margin-Regular-S" style="fill:none;stroke:#00AEEF;stroke-width:0.5;opacity:1.0;" x1="1394.79" x2="1394.79" y1="600.784" y2="720.121"/>
  <line id="right-margin-Regular-S" style="fill:none;stroke:#00AEEF;stroke-width:0.5;opacity:1.0;" x1="1504.9" x2="1504.9" y1="600.784" y2="720.121"/>
  <line id="left-margin-Black-S" style="fill:none;stroke:#00AEEF;stroke-width:0.5;opacity:1.0;" x1="2877.35" x2="2877.35" y1="600.784" y2="720.121"/>
  <line id="right-margin-Black-S" style="fill:none;stroke:#00AEEF;stroke-width:0.5;opacity:1.0;" x1="2989.45" x2="2989.45" y1="600.784" y2="720.121"/>
 </g>
 <g id="Symbols">
  <g id="Black-S" transform="matrix(1 0 0 1 2877.35 696)">
   <path class="hierarchical-0:secondary SFSymbolsPreview4D4D4D" d="M25 2.92969L87.1094 2.92969C91.8945 2.92969 95.6299 1.58692 98.3154-1.09863C101.001-3.78418 102.344-7.51953 102.344-12.3047L102.344-58.1055C102.344-62.8906 101.001-66.626 98.3154-69.3115C95.6299-71.997 91.8945-73.3398 87.1094-73.3398L25-73.3398C20.2149-73.3398 16.4795-71.997 13.7939-69.3115C11.1084-66.626 9.76562-62.8906 9.76562-58.1055L9.76562-12.3047C9.76562-7.51953 11.1084-3.78418 13.7939-1.09863C16.4795 1.58692 20.2149 2.92969 25 2.92969ZM27.2461-11.2305C26.1393-11.2305 25.3092-11.4828 24.7559-11.9873C24.2025-12.4918 23.9258-13.3463 23.9258-14.5508L23.9258-55.8594C23.9258-57.0963 24.2025-57.959 24.7559-58.4473C25.3092-58.9356 26.1393-59.1797 27.2461-59.1797L84.8633-59.1797C86.0026-59.1797 86.8408-58.9356 87.3779-58.4473C87.915-57.959 88.1836-57.0963 88.1836-55.8594L88.1836-14.5508C88.1836-13.3463 87.915-12.4918 87.3779-11.9873C86.8408-11.4828 86.0026-11.2305 84.8633-11.2305L27.2461-11.2305Z"/>
   <path class="hierarchical-1:primary SFSymbolsPreview212121" d="M31.3477-18.8965L55.2246-18.8965C56.2012-18.8965 56.9418-19.2139 57.4463-19.8486C57.9508-20.4834 58.2031-21.2402 58.2031-22.1191C58.2031-22.9329 57.9183-23.9746 57.3486-25.2441C56.7789-26.5136 55.9-27.775 54.7119-29.0283C53.5238-30.2816 51.9857-31.3395 50.0977-32.2021C48.2096-33.0648 45.9472-33.4961 43.3105-33.4961C40.6738-33.4961 38.4115-33.0648 36.5234-32.2021C34.6354-31.3395 33.0892-30.2816 31.8848-29.0283C30.6803-27.775 29.7933-26.5136 29.2236-25.2441C28.6539-23.9746 28.3691-22.9329 28.3691-22.1191C28.3691-21.2402 28.6214-20.4834 29.126-19.8486C29.6305-19.2139 30.3711-18.8965 31.3477-18.8965ZM43.3105-35.5469C45.4264-35.5469 47.2331-36.3444 48.7305-37.9395C50.2279-39.5345 50.9766-41.5202 50.9766-43.8965C50.9766-46.1426 50.2279-48.0713 48.7305-49.6826C47.2331-51.2939 45.4264-52.0996 43.3105-52.0996C41.1946-52.0996 39.388-51.2939 37.8906-49.6826C36.3932-48.0713 35.6445-46.1426 35.6445-43.8965C35.6445-41.5202 36.3932-39.5345 37.8906-37.9395C39.388-36.3444 41.1946-35.5469 43.3105-35.5469ZM65.7715-46.0449L80.4688-46.0449C81.25-46.0449 81.901-46.3135 82.4219-46.8506C82.9427-47.3877 83.2031-48.0468 83.2031-48.8281C83.2031-49.5768 82.9427-50.2116 82.4219-50.7324C81.901-51.2533 81.25-51.5137 80.4688-51.5137L65.7715-51.5137C64.9577-51.5137 64.2904-51.2533 63.7695-50.7324C63.2487-50.2116 62.9883-49.5768 62.9883-48.8281C62.9883-48.0468 63.2487-47.3877 63.7695-46.8506C64.2904-46.3135 64.9577-46.0449 65.7715-46.0449ZM65.7715-18.8965L80.4688-18.8965C81.25-18.8965 81.901-19.1569 82.4219-19.6777C82.9427-20.1986 83.2031-20.8333 83.2031-21.582C83.2031-22.3633 82.9427-23.0225 82.4219-23.5596C81.901-24.0967 81.25-24.3652 80.4688-24.3652L65.7715-24.3652C64.9577-24.3652 64.2904-24.0967 63.7695-23.5596C63.2487-23.0225 62.9883-22.3633 62.9883-21.582C62.9883-20.8333 63.2487-20.1986 63.7695-19.6777C64.2904-19.1569 64.9577-18.8965 65.7715-18.8965ZM65.7715-32.4219L80.4688-32.4219C81.25-32.4219 81.901-32.6904 82.4219-33.2275C82.9427-33.7646 83.2031-34.4238 83.2031-35.2051C83.2031-35.9538 82.9427-36.5885 82.4219-37.1094C81.901-37.6302 81.25-37.8906 80.4688-37.8906L65.7715-37.8906C64.9577-37.8906 64.2904-37.6302 63.7695-37.1094C63.2487-36.5885 62.9883-35.9538 62.9883-35.2051C62.9883-34.4238 63.2487-33.7646 63.7695-33.2275C64.2904-32.6904 64.9577-32.4219 65.7715-32.4219Z"/>
  </g>
  <g id="Regular-S" transform="matrix(1 0 0 1 1394.79 696)">
   <path class="hierarchical-0:secondary SFSymbolsPreview4D4D4D" d="M22.2168 0.390625L87.8906 0.390625C92.0899 0.390625 95.2149-0.634767 97.2656-2.68555C99.3165-4.73633 100.342-7.81251 100.342-11.9141L100.342-58.4961C100.342-62.5976 99.3165-65.6738 97.2656-67.7246C95.2149-69.7754 92.0899-70.8008 87.8906-70.8008L22.2168-70.8008C18.0827-70.8008 14.9739-69.7754 12.8906-67.7246C10.8073-65.6738 9.76562-62.5976 9.76562-58.4961L9.76562-11.9141C9.76562-7.81251 10.8073-4.73633 12.8906-2.68555C14.9739-0.634767 18.0827 0.390625 22.2168 0.390625ZM22.3145-6.68945C20.5566-6.68945 19.1976-7.16146 18.2373-8.10547C17.277-9.04948 16.7969-10.433 16.7969-12.2559L16.7969-58.1543C16.7969-60.0098 17.277-61.4014 18.2373-62.3291C19.1976-63.2568 20.5566-63.7207 22.3145-63.7207L87.793-63.7207C89.5508-63.7207 90.9098-63.2568 91.8701-62.3291C92.8304-61.4014 93.3105-60.0098 93.3105-58.1543L93.3105-12.2559C93.3105-10.433 92.8304-9.04948 91.8701-8.10547C90.9098-7.16146 89.5508-6.68945 87.793-6.68945L22.3145-6.68945Z"/>
   <path class="hierarchical-1:primary SFSymbolsPreview212121" d="M24.9023-18.0176L54.0039-18.0176C54.6875-18.0176 55.2083-18.2292 55.5664-18.6523C55.9245-19.0755 56.1035-19.5963 56.1035-20.2148C56.1035-21.0937 55.7617-22.2249 55.0781-23.6084C54.3945-24.9919 53.3691-26.3835 52.002-27.7832C50.6348-29.1829 48.9095-30.3548 46.8262-31.2988C44.7429-32.2428 42.2852-32.7148 39.4531-32.7148C36.6211-32.7148 34.1634-32.2428 32.0801-31.2988C29.9968-30.3548 28.2715-29.1829 26.9043-27.7832C25.5371-26.3835 24.5198-24.9919 23.8525-23.6084C23.1852-22.2249 22.8516-21.0937 22.8516-20.2148C22.8516-19.5963 23.0225-19.0755 23.3643-18.6523C23.7061-18.2292 24.2188-18.0176 24.9023-18.0176ZM39.4531-35.3516C41.7643-35.3516 43.7174-36.2142 45.3125-37.9395C46.9076-39.6647 47.7051-41.8131 47.7051-44.3848C47.7051-46.7936 46.9076-48.8769 45.3125-50.6348C43.7174-52.3926 41.7643-53.2715 39.4531-53.2715C37.1745-53.2715 35.2214-52.3926 33.5938-50.6348C31.9661-48.8769 31.1523-46.7936 31.1523-44.3848C31.1523-41.8131 31.9661-39.6647 33.5938-37.9395C35.2214-36.2142 37.1745-35.3516 39.4531-35.3516ZM64.1113-47.1191L84.6191-47.1191C85.3678-47.1191 85.9945-47.3795 86.499-47.9004C87.0036-48.4212 87.2559-49.056 87.2559-49.8047C87.2559-50.5208 87.0036-51.1312 86.499-51.6357C85.9945-52.1403 85.3678-52.3926 84.6191-52.3926L64.1113-52.3926C63.3626-52.3926 62.7279-52.1403 62.207-51.6357C61.6862-51.1312 61.4258-50.5208 61.4258-49.8047C61.4258-49.056 61.6862-48.4212 62.207-47.9004C62.7279-47.3795 63.3626-47.1191 64.1113-47.1191ZM64.1113-18.0176L84.6191-18.0176C85.3678-18.0176 85.9945-18.2699 86.499-18.7744C87.0036-19.2789 87.2559-19.8893 87.2559-20.6055C87.2559-21.3542 87.0036-21.9889 86.499-22.5098C85.9945-23.0306 85.3678-23.291 84.6191-23.291L64.1113-23.291C63.3626-23.291 62.7279-23.0306 62.207-22.5098C61.6862-21.9889 61.4258-21.3542 61.4258-20.6055C61.4258-19.8893 61.6862-19.2789 62.207-18.7744C62.7279-18.2699 63.3626-18.0176 64.1113-18.0176ZM64.1113-32.5684L84.6191-32.5684C85.3678-32.5684 85.9945-32.8288 86.499-33.3496C87.0036-33.8705 87.2559-34.5052 87.2559-35.2539C87.2559-35.97 87.0036-36.5804 86.499-37.085C85.9945-37.5895 85.3678-37.8418 84.6191-37.8418L64.1113-37.8418C63.3626-37.8418 62.7279-37.5895 62.207-37.085C61.6862-36.5804 61.4258-35.97 61.4258-35.2539C61.4258-34.5052 61.6862-33.8705 62.207-33.3496C62.7279-32.8288 63.3626-32.5684 64.1113-32.5684Z"/>
  </g>
  <g id="Ultralight-S" transform="matrix(1 0 0 1 513.201 696)">
   <path class="hierarchical-0:secondary SFSymbolsPreview4D4D4D" d="M10.7942 0.1523L82.7511 0.1523C86.2412 0.1523 88.8672-0.750677 90.6294-2.55663C92.3915-4.36259 93.273-6.96833 93.273-10.3739L93.273-60.2699C93.273-63.6754 92.3915-66.2898 90.6294-68.113C88.8672-69.9361 86.2412-70.8477 82.7511-70.8477L10.7942-70.8477C7.3383-70.8477 4.7208-69.9533 2.9415-68.1645C1.16225-66.3757 0.27262-63.7442 0.27262-60.2699L0.27262-10.3739C0.27262-6.93393 1.16225-4.31959 2.9415-2.53084C4.7208-0.742078 7.3383 0.1523 10.7942 0.1523ZM10.8427-1.6504C8.0862-1.6504 6.0016-2.36243 4.5889-3.78649C3.1762-5.21054 2.4699-7.31189 2.4699-10.0905L2.4699-60.2102C2.4699-62.9889 3.1762-65.0903 4.5889-66.5143C6.0016-67.9384 8.0862-68.6504 10.8427-68.6504L83.0971-68.6504C85.7847-68.6504 87.8521-67.9384 89.2991-66.5143C90.7463-65.0903 91.4699-62.9889 91.4699-60.2102L91.4699-10.0905C91.4699-7.31189 90.7463-5.21054 89.2991-3.78649C87.8521-2.36243 85.7847-1.6504 83.0971-1.6504L10.8427-1.6504Z"/>
   <path class="hierarchical-1:primary SFSymbolsPreview212121" d="M8.799-15.1875L46.0837-15.1875C46.5223-15.1875 46.8239-15.3063 46.9884-15.5439C47.1529-15.7815 47.2351-16.1196 47.2351-16.5583C47.2351-17.6548 46.833-19.0987 46.0289-20.8898C45.2247-22.681 44.0093-24.4812 42.3826-26.2907C40.756-28.1001 38.6999-29.6262 36.2143-30.8689C33.7286-32.1118 30.8043-32.7332 27.4414-32.7332C24.0785-32.7332 21.1542-32.1118 18.6686-30.8689C16.1829-29.6262 14.1268-28.1001 12.5001-26.2907C10.8735-24.4812 9.6581-22.681 8.8538-20.8898C8.0497-19.0987 7.6476-17.6548 7.6476-16.5583C7.6476-16.1196 7.739-15.7815 7.9218-15.5439C8.1046-15.3063 8.397-15.1875 8.799-15.1875ZM27.4414-35.9133C30.1829-35.9133 32.5041-36.9277 34.4049-38.9565C36.3056-40.9852 37.256-43.5348 37.256-46.6053C37.256-49.4565 36.3056-51.933 34.4049-54.0348C32.5041-56.1366 30.1829-57.1875 27.4414-57.1875C24.6999-57.1875 22.3696-56.1366 20.4505-54.0348C18.5314-51.933 17.5719-49.4565 17.5719-46.6053C17.5719-43.5348 18.5314-40.9852 20.4505-38.9565C22.3696-36.9277 24.6999-35.9133 27.4414-35.9133ZM56.7208-53.1849L82.162-53.1849C82.5276-53.1849 82.8292-53.2946 83.0668-53.514C83.3044-53.7332 83.4232-54.0074 83.4232-54.3364C83.4232-54.6653 83.3044-54.9486 83.0668-55.1862C82.8292-55.4238 82.5276-55.5426 82.162-55.5426L56.7208-55.5426C56.3918-55.5426 56.1085-55.4238 55.871-55.1862C55.6334-54.9486 55.5145-54.6653 55.5145-54.3364C55.5145-54.0074 55.6334-53.7332 55.871-53.514C56.1085-53.2946 56.3918-53.1849 56.7208-53.1849ZM56.7208-15.1875L82.162-15.1875C82.5276-15.1875 82.8292-15.3063 83.0668-15.5439C83.3044-15.7815 83.4232-16.0648 83.4232-16.3937C83.4232-16.7228 83.3044-16.9969 83.0668-17.2162C82.8292-17.4355 82.5276-17.5452 82.162-17.5452L56.7208-17.5452C56.3918-17.5452 56.1085-17.4355 55.871-17.2162C55.6334-16.9969 55.5145-16.7228 55.5145-16.3937C55.5145-16.0648 55.6334-15.7815 55.871-15.5439C56.1085-15.3063 56.3918-15.1875 56.7208-15.1875ZM56.7208-34.2137L82.162-34.2137C82.5276-34.2137 82.8292-34.3233 83.0668-34.5426C83.3044-34.7619 83.4232-35.0361 83.4232-35.365C83.4232-35.694 83.3044-35.9773 83.0668-36.215C82.8292-36.4526 82.5276-36.5714 82.162-36.5714L56.7208-36.5714C56.3918-36.5714 56.1085-36.4526 55.871-36.215C55.6334-35.9773 55.5145-35.694 55.5145-35.365C55.5145-35.0361 55.6334-34.7619 55.871-34.5426C56.1085-34.3233 56.3918-34.2137 56.7208-34.2137Z"/>
  </g>
 </g>
</svg>
