<?xml version="1.0" encoding="UTF-8"?>
<!--Generator: Apple Native CoreSVG 175-->
<!DOCTYPE svg
PUBLIC "-//W3C//DTD SVG 1.1//EN"
       "http://www.w3.org/Graphics/SVG/1.1/DTD/svg11.dtd">
<svg version="1.1" xmlns="http://www.w3.org/2000/svg" xmlns:xlink="http://www.w3.org/1999/xlink" width="3300" height="2200">
 <!--glyph: "", point size: 100.0, font version: "17.1d1e1", template writer version: "65.1"-->
 <style>.hierarchical-0:primary {fill:#212121}
.hierarchical-1:secondary {fill:#4D4D4D;-sfsymbols-clear-behind:true}

.SFSymbolsPreview212121 {fill:#212121;opacity:1.0}
.SFSymbolsPreview4D4D4D {fill:#4D4D4D;opacity:1.0}
</style>
 <g id="Notes">
  <rect height="2200" id="artboard" style="fill:white;opacity:1" width="3300" x="0" y="0"/>
  <line style="fill:none;stroke:black;opacity:1;stroke-width:0.5;" x1="263" x2="3036" y1="292" y2="292"/>
  <text style="stroke:none;fill:black;font-family:sans-serif;font-size:13;font-weight:bold;" transform="matrix(1 0 0 1 263 322)">Weight/Scale Variations</text>
  <text style="stroke:none;fill:black;font-family:sans-serif;font-size:13;text-anchor:middle;" transform="matrix(1 0 0 1 559.711 322)">Ultralight</text>
  <text style="stroke:none;fill:black;font-family:sans-serif;font-size:13;text-anchor:middle;" transform="matrix(1 0 0 1 856.422 322)">Thin</text>
  <text style="stroke:none;fill:black;font-family:sans-serif;font-size:13;text-anchor:middle;" transform="matrix(1 0 0 1 1153.13 322)">Light</text>
  <text style="stroke:none;fill:black;font-family:sans-serif;font-size:13;text-anchor:middle;" transform="matrix(1 0 0 1 1449.84 322)">Regular</text>
  <text style="stroke:none;fill:black;font-family:sans-serif;font-size:13;text-anchor:middle;" transform="matrix(1 0 0 1 1746.56 322)">Medium</text>
  <text style="stroke:none;fill:black;font-family:sans-serif;font-size:13;text-anchor:middle;" transform="matrix(1 0 0 1 2043.27 322)">Semibold</text>
  <text style="stroke:none;fill:black;font-family:sans-serif;font-size:13;text-anchor:middle;" transform="matrix(1 0 0 1 2339.98 322)">Bold</text>
  <text style="stroke:none;fill:black;font-family:sans-serif;font-size:13;text-anchor:middle;" transform="matrix(1 0 0 1 2636.69 322)">Heavy</text>
  <text style="stroke:none;fill:black;font-family:sans-serif;font-size:13;text-anchor:middle;" transform="matrix(1 0 0 1 2933.4 322)">Black</text>
  <line style="fill:none;stroke:black;opacity:1;stroke-width:0.5;" x1="263" x2="3036" y1="1903" y2="1903"/>
  <g transform="matrix(1 0 0 1 263 1933)">
   <path d="M9.24805 0.830078Q10.8691 0.830078 12.2949 0.214844Q13.7207-0.400391 14.8096-1.49414Q15.8984-2.58789 16.5186-4.01367Q17.1387-5.43945 17.1387-7.05078Q17.1387-8.66211 16.5186-10.0879Q15.8984-11.5137 14.8047-12.6074Q13.7109-13.7012 12.2852-14.3164Q10.8594-14.9316 9.23828-14.9316Q7.62695-14.9316 6.20117-14.3164Q4.77539-13.7012 3.69141-12.6074Q2.60742-11.5137 1.9873-10.0879Q1.36719-8.66211 1.36719-7.05078Q1.36719-5.43945 1.9873-4.01367Q2.60742-2.58789 3.69629-1.49414Q4.78516-0.400391 6.21094 0.214844Q7.63672 0.830078 9.24805 0.830078ZM9.24805-0.654297Q7.91992-0.654297 6.7627-1.14746Q5.60547-1.64062 4.73145-2.51953Q3.85742-3.39844 3.36426-4.56055Q2.87109-5.72266 2.87109-7.05078Q2.87109-8.37891 3.35938-9.54102Q3.84766-10.7031 4.72168-11.582Q5.5957-12.4609 6.75293-12.9541Q7.91016-13.4473 9.23828-13.4473Q10.5762-13.4473 11.7334-12.9541Q12.8906-12.4609 13.7695-11.582Q14.6484-10.7031 15.1465-9.54102Q15.6445-8.37891 15.6445-7.05078Q15.6445-5.72266 15.1514-4.56055Q14.6582-3.39844 13.7842-2.51953Q12.9102-1.64062 11.748-1.14746Q10.5859-0.654297 9.24805-0.654297ZM5.6543-7.05078Q5.6543-6.72852 5.85938-6.52832Q6.06445-6.32812 6.40625-6.32812L8.51562-6.32812L8.51562-4.20898Q8.51562-3.88672 8.71094-3.67676Q8.90625-3.4668 9.23828-3.4668Q9.56055-3.4668 9.77051-3.67676Q9.98047-3.88672 9.98047-4.20898L9.98047-6.32812L12.0898-6.32812Q12.4219-6.32812 12.627-6.52832Q12.832-6.72852 12.832-7.05078Q12.832-7.38281 12.627-7.58789Q12.4219-7.79297 12.0898-7.79297L9.98047-7.79297L9.98047-9.90234Q9.98047-10.2344 9.77051-10.4443Q9.56055-10.6543 9.23828-10.6543Q8.90625-10.6543 8.71094-10.4443Q8.51562-10.2344 8.51562-9.90234L8.51562-7.79297L6.40625-7.79297Q6.06445-7.79297 5.85938-7.58789Q5.6543-7.38281 5.6543-7.05078Z"/>
  </g>
  <g transform="matrix(1 0 0 1 281.867 1933)">
   <path d="M11.709 2.91016Q13.75 2.91016 15.5518 2.12891Q17.3535 1.34766 18.7305-0.0292969Q20.1074-1.40625 20.8887-3.20801Q21.6699-5.00977 21.6699-7.05078Q21.6699-9.0918 20.8887-10.8936Q20.1074-12.6953 18.7305-14.0723Q17.3535-15.4492 15.5469-16.2305Q13.7402-17.0117 11.6992-17.0117Q9.6582-17.0117 7.85645-16.2305Q6.05469-15.4492 4.68262-14.0723Q3.31055-12.6953 2.5293-10.8936Q1.74805-9.0918 1.74805-7.05078Q1.74805-5.00977 2.5293-3.20801Q3.31055-1.40625 4.6875-0.0292969Q6.06445 1.34766 7.86621 2.12891Q9.66797 2.91016 11.709 2.91016ZM11.709 1.25Q9.98047 1.25 8.47656 0.605469Q6.97266-0.0390625 5.83496-1.17676Q4.69727-2.31445 4.05762-3.81836Q3.41797-5.32227 3.41797-7.05078Q3.41797-8.7793 4.05762-10.2832Q4.69727-11.7871 5.83008-12.9297Q6.96289-14.0723 8.4668-14.7119Q9.9707-15.3516 11.6992-15.3516Q13.4277-15.3516 14.9316-14.7119Q16.4355-14.0723 17.5781-12.9297Q18.7207-11.7871 19.3652-10.2832Q20.0098-8.7793 20.0098-7.05078Q20.0098-5.32227 19.3701-3.81836Q18.7305-2.31445 17.5928-1.17676Q16.4551-0.0390625 14.9463 0.605469Q13.4375 1.25 11.709 1.25ZM7.17773-7.05078Q7.17773-6.69922 7.41211-6.47461Q7.64648-6.25 8.01758-6.25L10.8887-6.25L10.8887-3.36914Q10.8887-2.99805 11.1133-2.76855Q11.3379-2.53906 11.6895-2.53906Q12.0605-2.53906 12.29-2.76855Q12.5195-2.99805 12.5195-3.36914L12.5195-6.25L15.4004-6.25Q15.7715-6.25 16.001-6.47461Q16.2305-6.69922 16.2305-7.05078Q16.2305-7.42188 16.001-7.65137Q15.7715-7.88086 15.4004-7.88086L12.5195-7.88086L12.5195-10.752Q12.5195-11.1328 12.29-11.3623Q12.0605-11.5918 11.6895-11.5918Q11.3379-11.5918 11.1133-11.3574Q10.8887-11.123 10.8887-10.752L10.8887-7.88086L8.01758-7.88086Q7.63672-7.88086 7.40723-7.65137Q7.17773-7.42188 7.17773-7.05078Z"/>
  </g>
  <g transform="matrix(1 0 0 1 305.646 1933)">
   <path d="M14.9707 5.66406Q17.0605 5.66406 18.96 5.01465Q20.8594 4.36523 22.4512 3.19336Q24.043 2.02148 25.2197 0.429688Q26.3965-1.16211 27.0459-3.06641Q27.6953-4.9707 27.6953-7.05078Q27.6953-9.14062 27.0459-11.04Q26.3965-12.9395 25.2197-14.5312Q24.043-16.123 22.4512-17.2998Q20.8594-18.4766 18.9551-19.126Q17.0508-19.7754 14.9609-19.7754Q12.8711-19.7754 10.9717-19.126Q9.07227-18.4766 7.48535-17.2998Q5.89844-16.123 4.72168-14.5312Q3.54492-12.9395 2.90039-11.04Q2.25586-9.14062 2.25586-7.05078Q2.25586-4.9707 2.90527-3.06641Q3.55469-1.16211 4.72656 0.429688Q5.89844 2.02148 7.49023 3.19336Q9.08203 4.36523 10.9814 5.01465Q12.8809 5.66406 14.9707 5.66406ZM14.9707 3.84766Q13.1641 3.84766 11.5283 3.2959Q9.89258 2.74414 8.53516 1.74805Q7.17773 0.751953 6.17676-0.610352Q5.17578-1.97266 4.62891-3.6084Q4.08203-5.24414 4.08203-7.05078Q4.08203-8.86719 4.62891-10.5029Q5.17578-12.1387 6.17188-13.501Q7.16797-14.8633 8.52539-15.8594Q9.88281-16.8555 11.5186-17.4023Q13.1543-17.9492 14.9609-17.9492Q16.7773-17.9492 18.4131-17.4023Q20.0488-16.8555 21.4111-15.8594Q22.7734-14.8633 23.7695-13.501Q24.7656-12.1387 25.3174-10.5029Q25.8691-8.86719 25.8691-7.05078Q25.8789-5.24414 25.332-3.6084Q24.7852-1.97266 23.7842-0.610352Q22.7832 0.751953 21.4209 1.74805Q20.0586 2.74414 18.4229 3.2959Q16.7871 3.84766 14.9707 3.84766ZM9.19922-7.05078Q9.19922-6.66992 9.45801-6.4209Q9.7168-6.17188 10.1172-6.17188L14.0625-6.17188L14.0625-2.2168Q14.0625-1.81641 14.3115-1.55762Q14.5605-1.29883 14.9512-1.29883Q15.3516-1.29883 15.6104-1.55273Q15.8691-1.80664 15.8691-2.2168L15.8691-6.17188L19.8242-6.17188Q20.2246-6.17188 20.4785-6.4209Q20.7324-6.66992 20.7324-7.05078Q20.7324-7.46094 20.4785-7.71484Q20.2246-7.96875 19.8242-7.96875L15.8691-7.96875L15.8691-11.9141Q15.8691-12.3242 15.6104-12.583Q15.3516-12.8418 14.9512-12.8418Q14.5605-12.8418 14.3115-12.583Q14.0625-12.3242 14.0625-11.9141L14.0625-7.96875L10.1172-7.96875Q9.70703-7.96875 9.45312-7.71484Q9.19922-7.46094 9.19922-7.05078Z"/>
  </g>
  <text style="stroke:none;fill:black;font-family:sans-serif;font-size:13;font-weight:bold;" transform="matrix(1 0 0 1 263 1953)">Design Variations</text>
  <text style="stroke:none;fill:black;font-family:sans-serif;font-size:13;" transform="matrix(1 0 0 1 263 1971)">Symbols are supported in up to nine weights and three scales.</text>
  <text style="stroke:none;fill:black;font-family:sans-serif;font-size:13;" transform="matrix(1 0 0 1 263 1989)">For optimal layout with text and other symbols, vertically align</text>
  <text style="stroke:none;fill:black;font-family:sans-serif;font-size:13;" transform="matrix(1 0 0 1 263 2007)">symbols with the adjacent text.</text>
  <line style="fill:none;stroke:#00AEEF;stroke-width:0.5;opacity:1.0;" x1="776" x2="776" y1="1919" y2="1933"/>
  <g transform="matrix(1 0 0 1 776 1933)">
   <path d="M3.31055 0.15625Q3.70117 0.15625 3.91602-0.00976562Q4.13086-0.175781 4.26758-0.585938L5.52734-4.0332L11.2891-4.0332L12.5488-0.585938Q12.6855-0.175781 12.9004-0.00976562Q13.1152 0.15625 13.4961 0.15625Q13.8867 0.15625 14.1162-0.0585938Q14.3457-0.273438 14.3457-0.644531Q14.3457-0.869141 14.2383-1.17188L9.6582-13.3691Q9.48242-13.8184 9.17969-14.043Q8.87695-14.2676 8.4082-14.2676Q7.5-14.2676 7.17773-13.3789L2.59766-1.16211Q2.49023-0.859375 2.49023-0.634766Q2.49023-0.263672 2.70996-0.0537109Q2.92969 0.15625 3.31055 0.15625ZM6.00586-5.51758L8.37891-12.0898L8.42773-12.0898L10.8008-5.51758Z"/>
  </g>
  <line style="fill:none;stroke:#00AEEF;stroke-width:0.5;opacity:1.0;" x1="793.197" x2="793.197" y1="1919" y2="1933"/>
  <text style="stroke:none;fill:black;font-family:sans-serif;font-size:13;font-weight:bold;" transform="matrix(1 0 0 1 776 1953)">Margins</text>
  <text style="stroke:none;fill:black;font-family:sans-serif;font-size:13;" transform="matrix(1 0 0 1 776 1971)">Leading and trailing margins on the left and right side of each symbol</text>
  <text style="stroke:none;fill:black;font-family:sans-serif;font-size:13;" transform="matrix(1 0 0 1 776 1989)">can be adjusted by modifying the x-location of the margin guidelines.</text>
  <text style="stroke:none;fill:black;font-family:sans-serif;font-size:13;" transform="matrix(1 0 0 1 776 2007)">Modifications are automatically applied proportionally to all</text>
  <text style="stroke:none;fill:black;font-family:sans-serif;font-size:13;" transform="matrix(1 0 0 1 776 2025)">scales and weights.</text>
  <g transform="matrix(1 0 0 1 1289 1933)">
   <path d="M2.8418 1.86523L4.54102 3.57422Q5.18555 4.22852 5.90332 4.17969Q6.62109 4.13086 7.31445 3.35938L18.0078-8.42773L17.041-9.4043L6.42578 2.27539Q6.16211 2.57812 5.89355 2.61719Q5.625 2.65625 5.27344 2.30469L4.10156 1.14258Q3.75 0.791016 3.79395 0.522461Q3.83789 0.253906 4.14062-0.0195312L15.6152-10.8203L14.6387-11.7871L3.04688-0.898438Q2.30469-0.214844 2.25098 0.498047Q2.19727 1.21094 2.8418 1.86523ZM9.25781-16.3281Q8.94531-16.0254 8.90625-15.6348Q8.86719-15.2441 9.04297-14.9512Q9.21875-14.6777 9.55566-14.541Q9.89258-14.4043 10.3809-14.5215Q11.4746-14.7754 12.5977-14.7314Q13.7207-14.6875 14.7949-13.9844L14.209-12.5293Q13.9551-11.9043 14.0674-11.4404Q14.1797-10.9766 14.5801-10.5664L16.875-8.25195Q17.2363-7.88086 17.5781-7.82227Q17.9199-7.76367 18.3398-7.8418L19.4043-8.03711L20.0684-7.36328L20.0293-6.80664Q20-6.43555 20.1221-6.12305Q20.2441-5.81055 20.6055-5.44922L21.3672-4.70703Q21.7285-4.3457 22.1533-4.33105Q22.5781-4.31641 22.9297-4.66797L25.8398-7.58789Q26.1914-7.93945 26.1816-8.35449Q26.1719-8.76953 25.8105-9.13086L25.0391-9.89258Q24.6875-10.2539 24.3799-10.3857Q24.0723-10.5176 23.7109-10.4883L23.1348-10.4395L22.4902-11.0742L22.7344-12.1973Q22.832-12.6172 22.6953-12.9834Q22.5586-13.3496 22.1191-13.7891L19.9219-15.9766Q18.6719-17.2168 17.2607-17.8369Q15.8496-18.457 14.4189-18.4814Q12.9883-18.5059 11.665-17.959Q10.3418-17.4121 9.25781-16.3281ZM10.752-15.957Q11.6602-16.6211 12.7002-16.9043Q13.7402-17.1875 14.8047-17.085Q15.8691-16.9824 16.8701-16.5137Q17.8711-16.0449 18.7012-15.2051L21.1328-12.793Q21.3086-12.6172 21.3525-12.4512Q21.3965-12.2852 21.3379-12.0312L21.0156-10.5469L22.5195-9.0625L23.5059-9.12109Q23.6914-9.13086 23.7891-9.09668Q23.8867-9.0625 24.0332-8.91602L24.6094-8.33984L22.168-5.89844L21.5918-6.47461Q21.4453-6.62109 21.4062-6.71875Q21.3672-6.81641 21.377-7.01172L21.4453-7.98828L19.9512-9.47266L18.4277-9.21875Q18.1836-9.16992 18.042-9.2041Q17.9004-9.23828 17.7148-9.41406L15.7129-11.416Q15.5176-11.5918 15.4932-11.7529Q15.4688-11.9141 15.5859-12.1875L16.4648-14.2773Q15.293-15.3711 13.8281-15.791Q12.3633-16.2109 10.8398-15.7617Q10.7227-15.7324 10.6885-15.8057Q10.6543-15.8789 10.752-15.957Z"/>
  </g>
  <text style="stroke:none;fill:black;font-family:sans-serif;font-size:13;font-weight:bold;" transform="matrix(1 0 0 1 1289 1953)">Exporting</text>
  <text style="stroke:none;fill:black;font-family:sans-serif;font-size:13;" transform="matrix(1 0 0 1 1289 1971)">Symbols should be outlined when exporting to ensure the</text>
  <text style="stroke:none;fill:black;font-family:sans-serif;font-size:13;" transform="matrix(1 0 0 1 1289 1989)">design is preserved when submitting to Xcode.</text>
  <text id="template-version" style="stroke:none;fill:black;font-family:sans-serif;font-size:13;text-anchor:end;" transform="matrix(1 0 0 1 3036 1933)">Template v.3.0</text>
  <text style="stroke:none;fill:black;font-family:sans-serif;font-size:13;text-anchor:end;" transform="matrix(1 0 0 1 3036 1951)">Requires Xcode 13 or greater</text>
  <text id="descriptive-name" style="stroke:none;fill:black;font-family:sans-serif;font-size:13;text-anchor:end;" transform="matrix(1 0 0 1 3036 1969)">Generated from vice-chairman</text>
  <text style="stroke:none;fill:black;font-family:sans-serif;font-size:13;text-anchor:end;" transform="matrix(1 0 0 1 3036 1987)">Typeset at 100 points</text>
  <text style="stroke:none;fill:black;font-family:sans-serif;font-size:13;" transform="matrix(1 0 0 1 263 726)">Small</text>
  <text style="stroke:none;fill:black;font-family:sans-serif;font-size:13;" transform="matrix(1 0 0 1 263 1156)">Medium</text>
  <text style="stroke:none;fill:black;font-family:sans-serif;font-size:13;" transform="matrix(1 0 0 1 263 1586)">Large</text>
 </g>
 <g id="Guides">
  <g id="H-reference" style="fill:#27AAE1;stroke:none;" transform="matrix(1 0 0 1 339 696)">
   <path d="M0.976562 0L3.66211 0L29.3457-67.1387L30.0293-67.1387L30.0293-70.459L28.125-70.459ZM11.6699-24.4629L46.9727-24.4629L46.2402-26.709L12.4512-26.709ZM55.127 0L57.7637 0L30.6152-70.459L29.4434-70.459L29.4434-67.1387Z"/>
  </g>
  <line id="Baseline-S" style="fill:none;stroke:#27AAE1;opacity:1;stroke-width:0.5;" x1="263" x2="3036" y1="696" y2="696"/>
  <line id="Capline-S" style="fill:none;stroke:#27AAE1;opacity:1;stroke-width:0.5;" x1="263" x2="3036" y1="625.541" y2="625.541"/>
  <g id="H-reference" style="fill:#27AAE1;stroke:none;" transform="matrix(1 0 0 1 339 1126)">
   <path d="M0.976562 0L3.66211 0L29.3457-67.1387L30.0293-67.1387L30.0293-70.459L28.125-70.459ZM11.6699-24.4629L46.9727-24.4629L46.2402-26.709L12.4512-26.709ZM55.127 0L57.7637 0L30.6152-70.459L29.4434-70.459L29.4434-67.1387Z"/>
  </g>
  <line id="Baseline-M" style="fill:none;stroke:#27AAE1;opacity:1;stroke-width:0.5;" x1="263" x2="3036" y1="1126" y2="1126"/>
  <line id="Capline-M" style="fill:none;stroke:#27AAE1;opacity:1;stroke-width:0.5;" x1="263" x2="3036" y1="1055.54" y2="1055.54"/>
  <g id="H-reference" style="fill:#27AAE1;stroke:none;" transform="matrix(1 0 0 1 339 1556)">
   <path d="M0.976562 0L3.66211 0L29.3457-67.1387L30.0293-67.1387L30.0293-70.459L28.125-70.459ZM11.6699-24.4629L46.9727-24.4629L46.2402-26.709L12.4512-26.709ZM55.127 0L57.7637 0L30.6152-70.459L29.4434-70.459L29.4434-67.1387Z"/>
  </g>
  <line id="Baseline-L" style="fill:none;stroke:#27AAE1;opacity:1;stroke-width:0.5;" x1="263" x2="3036" y1="1556" y2="1556"/>
  <line id="Capline-L" style="fill:none;stroke:#27AAE1;opacity:1;stroke-width:0.5;" x1="263" x2="3036" y1="1485.54" y2="1485.54"/>
  <line id="left-margin-Ultralight-S" style="fill:none;stroke:#00AEEF;stroke-width:0.5;opacity:1.0;" x1="516.352" x2="516.352" y1="600.784" y2="720.121"/>
  <line id="right-margin-Ultralight-S" style="fill:none;stroke:#00AEEF;stroke-width:0.5;opacity:1.0;" x1="603.07" x2="603.07" y1="600.784" y2="720.121"/>
  <line id="left-margin-Regular-S" style="fill:none;stroke:#00AEEF;stroke-width:0.5;opacity:1.0;" x1="1404.51" x2="1404.51" y1="600.784" y2="720.121"/>
  <line id="right-margin-Regular-S" style="fill:none;stroke:#00AEEF;stroke-width:0.5;opacity:1.0;" x1="1495.18" x2="1495.18" y1="600.784" y2="720.121"/>
  <line id="left-margin-Black-S" style="fill:none;stroke:#00AEEF;stroke-width:0.5;opacity:1.0;" x1="2885.5" x2="2885.5" y1="600.784" y2="720.121"/>
  <line id="right-margin-Black-S" style="fill:none;stroke:#00AEEF;stroke-width:0.5;opacity:1.0;" x1="2981.3" x2="2981.3" y1="600.784" y2="720.121"/>
 </g>
 <g id="Symbols">
  <g id="Black-S" transform="matrix(1 0 0 1 2885.5 696)">
   <path class="hierarchical-0:primary SFSymbolsPreview212121" d="M38.7662-25.6739C35.9992-25.6739 33.4602-25.088 31.149-23.9161C28.8378-22.7442 26.9904-21.2793 25.607-19.5215C24.2236-17.7637 23.5319-15.9896 23.5319-14.1993C23.5319-12.8321 23.8085-11.7497 24.3619-10.9522C24.9153-10.1547 25.7616-9.7559 26.901-9.7559L41.4029-9.7559C40.6217-10.7976 40.2311-12.1159 40.2311-13.711C40.2311-15.3711 40.6786-17.1452 41.5738-19.0332C42.469-20.9213 43.8118-22.6465 45.6022-24.209C44.7232-24.6322 43.6978-24.9821 42.526-25.2588C41.3541-25.5355 40.1008-25.6739 38.7662-25.6739ZM38.7662-28.6524C40.817-28.6524 42.526-29.4011 43.8932-30.8985C45.2604-32.3959 45.944-34.2025 45.944-36.3184C45.944-38.4017 45.2522-40.2084 43.8688-41.7383C42.4853-43.2682 40.7844-44.0332 38.7662-44.0332C36.7805-44.0332 35.0959-43.2682 33.7125-41.7383C32.329-40.2084 31.6373-38.4017 31.6373-36.3184C31.6373-34.2025 32.329-32.3959 33.7125-30.8985C35.0959-29.4011 36.7805-28.6524 38.7662-28.6524Z"/>
   <path class="hierarchical-1:secondary SFSymbolsPreview4D4D4D" d="M24.8824 3.26949L70.6832 3.26949C75.4683 3.26949 79.2036 1.92672 81.8892-0.75883C84.5748-3.44438 85.9176-7.17973 85.9176-11.9649L85.9176-57.7657C85.9176-62.5508 84.5748-66.2862 81.8892-68.9717C79.2036-71.6572 75.4683-73 70.6832-73L24.8824-73C20.0972-73 16.3619-71.6572 13.6763-68.9717C10.9908-66.2862 9.648-62.5508 9.648-57.7657L9.648-11.9649C9.648-7.17973 10.9908-3.44438 13.6763-0.75883C16.3619 1.92672 20.0972 3.26949 24.8824 3.26949ZM27.1285-10.8907C26.0217-10.8907 25.1916-11.143 24.6383-11.6475C24.0849-12.152 23.8082-13.0065 23.8082-14.211L23.8082-55.5196C23.8082-56.7565 24.0849-57.6192 24.6383-58.1075C25.1916-58.5958 26.0217-58.8399 27.1285-58.8399L68.4371-58.8399C69.5764-58.8399 70.4146-58.5958 70.9517-58.1075C71.4888-57.6192 71.7574-56.7565 71.7574-55.5196L71.7574-14.211C71.7574-13.0065 71.4888-12.152 70.9517-11.6475C70.4146-11.143 69.5764-10.8907 68.4371-10.8907L27.1285-10.8907ZM47.1647-9.7559L73.6783-9.7559C75.6314-9.7559 76.9742-10.0814 77.7067-10.7325C78.4391-11.3835 78.8053-12.2624 78.8053-13.3692C78.8053-15.1921 78.1054-17.0476 76.7057-18.9356C75.3059-20.8236 73.3365-22.4105 70.7975-23.6963C68.2584-24.9821 65.2799-25.625 61.8619-25.625C59.3228-25.625 57.0198-25.2507 54.9528-24.502C52.8857-23.7533 51.1116-22.7686 49.6305-21.5479C48.1493-20.3272 47.01-19.0007 46.2125-17.5684C45.4149-16.1361 45.0162-14.7364 45.0162-13.3692C45.0162-12.2624 45.2359-11.3835 45.6754-10.7325C46.1148-10.0814 46.6113-9.7559 47.1647-9.7559ZM61.8619-28.9942C64.2382-28.9942 66.2157-29.865 67.7945-31.6065C69.3733-33.348 70.1627-35.4558 70.1627-37.9297C70.1627-40.3386 69.3651-42.4056 67.7701-44.1309C66.1751-45.8562 64.2057-46.7188 61.8619-46.7188C59.5833-46.7188 57.6546-45.8562 56.0758-44.1309C54.497-42.4056 53.7076-40.3386 53.7076-37.9297C53.7076-35.4558 54.4888-33.348 56.0514-31.6065C57.6138-29.865 59.5507-28.9942 61.8619-28.9942Z"/>
  </g>
  <g id="Regular-S" transform="matrix(1 0 0 1 1404.51 696)">
   <path class="hierarchical-0:primary SFSymbolsPreview212121" d="M33.2283-22.2832C30.0707-22.2832 27.3445-21.6078 25.0496-20.2569C22.7546-18.906 20.9806-17.2051 19.7274-15.1543C18.4741-13.1036 17.8312-10.9714 17.7986-8.75786C17.7986-7.71619 18.116-6.74777 18.7508-5.85258C19.3855-4.9574 20.4841-4.50981 22.0467-4.50981L35.5233-4.50981C35.0675-5.71424 34.8397-7.00004 34.8397-8.36723C34.8397-10.711 35.3524-12.9327 36.3778-15.0323C37.4031-17.1319 38.811-18.9955 40.6014-20.6231C39.6248-21.1765 38.518-21.5915 37.2811-21.8682C36.0441-22.1449 34.6931-22.2832 33.2283-22.2832ZM33.2283-26.2872C35.1814-26.2872 36.8823-27.0684 38.3309-28.6309C39.7794-30.1934 40.5037-32.114 40.5037-34.3926C40.5037-36.6713 39.7794-38.543 38.3309-40.0079C36.8823-41.4727 35.1814-42.2051 33.2283-42.2051C31.2751-42.2051 29.5662-41.4564 28.1014-39.959C26.6365-38.4616 25.9041-36.5899 25.9041-34.3438C25.9041-32.0651 26.6365-30.1527 28.1014-28.6065C29.5662-27.0603 31.2751-26.2872 33.2283-26.2872Z"/>
   <path class="hierarchical-1:secondary SFSymbolsPreview4D4D4D" d="M22.0992 0.730425L68.3394 0.730425C72.506 0.730425 75.6229-0.294967 77.69-2.34575C79.757-4.39653 80.7906-7.47271 80.7906-11.5743L80.7906-58.1563C80.7906-62.2578 79.757-65.334 77.69-67.3848C75.6229-69.4356 72.506-70.461 68.3394-70.461L22.0992-70.461C17.965-70.461 14.8563-69.4356 12.773-67.3848C10.6897-65.334 9.648-62.2578 9.648-58.1563L9.648-11.5743C9.648-7.47271 10.6897-4.39653 12.773-2.34575C14.8563-0.294967 17.965 0.730425 22.0992 0.730425ZM22.1969-6.34965C20.439-6.34965 19.0799-6.81352 18.1197-7.74125C17.1594-8.66899 16.6793-10.0606 16.6793-11.9161L16.6793-57.8145C16.6793-59.6374 17.1594-61.0209 18.1197-61.9649C19.0799-62.9089 20.439-63.3809 22.1969-63.3809L68.2418-63.3809C69.9996-63.3809 71.3586-62.9089 72.3189-61.9649C73.2792-61.0209 73.7594-59.6374 73.7594-57.8145L73.7594-11.9161C73.7594-10.0606 73.2792-8.66899 72.3189-7.74125C71.3586-6.81352 69.9996-6.34965 68.2418-6.34965L22.1969-6.34965ZM42.408-4.50981L69.8006-4.50981C71.7212-4.50981 73.0395-4.94112 73.7557-5.80375C74.4718-6.66638 74.8299-7.60226 74.8299-8.61137C74.7647-10.7273 74.016-12.8269 72.5838-14.9102C71.1515-16.9935 69.1251-18.7351 66.5047-20.1348C63.8842-21.5345 60.7999-22.2344 57.2518-22.2344C54.5174-22.2344 52.0678-21.8112 49.9031-20.9649C47.7384-20.1186 45.8911-19.0118 44.3612-17.6446C42.8312-16.2774 41.6593-14.78 40.8455-13.1524C40.0317-11.5248 39.6248-9.92973 39.6248-8.36723C39.6248-7.13025 39.8771-6.1781 40.3817-5.51079C40.8862-4.84347 41.5616-4.50981 42.408-4.50981ZM57.2518-26.8243C59.4653-26.8243 61.4103-27.7113 63.0867-29.4854C64.7631-31.2595 65.6014-33.4486 65.6014-36.0528C65.6014-38.6895 64.7631-40.8461 63.0867-42.5225C61.4103-44.199 59.4653-45.0372 57.2518-45.0372C55.0382-45.0372 53.077-44.1746 51.368-42.4493C49.659-40.724 48.8045-38.5756 48.8045-36.004C48.8045-33.3998 49.659-31.2188 51.368-29.461C53.077-27.7032 55.0382-26.8243 57.2518-26.8243Z"/>
  </g>
  <g id="Ultralight-S" transform="matrix(1 0 0 1 516.352 696)">
   <path class="hierarchical-0:primary SFSymbolsPreview212121" d="M29.7646-21.5293C26.7698-21.5293 24.0517-20.9678 21.6103-19.8448C19.1689-18.7217 17.1588-17.3627 15.5801-15.7676C14.0013-14.1726 13.0491-12.6589 12.7236-11.2266C12.7236-8.13416 13.4153-5.8311 14.7988-4.31743C16.1822-2.80376 18.5504-2.04692 21.9033-2.04692L34.8428-2.04692C34.2894-3.21879 34.0127-4.55343 34.0127-6.05083C34.0127-8.26437 34.5742-10.4047 35.6973-12.4717C36.8203-14.5388 38.3095-16.4187 40.165-18.1114C38.7002-19.2181 37.1295-20.0645 35.4531-20.6504C33.7767-21.2363 31.8805-21.5293 29.7646-21.5293ZM29.8135-25.6309C31.9944-25.6309 33.8254-26.4528 35.3066-28.0967C36.7877-29.7406 37.5283-31.7832 37.5283-34.2247C37.5283-36.5358 36.7796-38.5052 35.2822-40.1329C33.7848-41.7605 31.9619-42.5743 29.8135-42.5743C27.665-42.5743 25.8421-41.7523 24.3447-40.1084C22.8473-38.4645 22.1148-36.5033 22.1474-34.2247C22.1474-31.7832 22.8798-29.7406 24.3447-28.0967C25.8095-26.4528 27.6325-25.6309 29.8135-25.6309Z"/>
   <path class="hierarchical-1:secondary SFSymbolsPreview4D4D4D" d="M19.6578-1.2227L66.8258-1.2227C70.1135-1.2227 72.6037-2.08533 74.2965-3.81059C75.9891-5.53585 76.8355-8.00982 76.8355-11.2325L76.8355-58.4493C76.8355-61.6719 75.9891-64.1377 74.2965-65.8467C72.6037-67.5557 70.1135-68.4102 66.8258-68.4102L19.6578-68.4102C16.37-68.4102 13.8798-67.5638 12.1871-65.8711C10.4944-64.1784 9.648-61.7045 9.648-58.4493L9.648-11.2325C9.648-7.94471 10.4944-5.45447 12.1871-3.76176C13.8798-2.06905 16.37-1.2227 19.6578-1.2227ZM19.7554-3.41997C17.1512-3.41997 15.1818-4.08729 13.8472-5.42192C12.5126-6.75655 11.8453-8.72595 11.8453-11.3301L11.8453-58.3028C11.8453-60.9069 12.5126-62.8763 13.8472-64.211C15.1818-65.5456 17.1512-66.2129 19.7554-66.2129L66.7281-66.2129C69.2671-66.2129 71.2203-65.5456 72.5875-64.211C73.9547-62.8763 74.6383-60.9069 74.6383-58.3028L74.6383-11.3301C74.6383-8.72595 73.9547-6.75655 72.5875-5.42192C71.2203-4.08729 69.2671-3.41997 66.7281-3.41997L19.7554-3.41997ZM39.1396-2.04692L65.7998-2.04692C69.055-2.04692 71.2034-2.9421 72.2451-4.73247C73.2867-6.52283 73.8076-8.60616 73.8076-10.9825C72.7984-12.6752 71.5045-14.3109 69.9258-15.8897C68.347-17.4685 66.4182-18.7869 64.1396-19.8448C61.861-20.9027 59.1917-21.4317 56.1318-21.4317C53.1696-21.4317 50.5166-20.9109 48.1728-19.8692C45.829-18.8275 43.8352-17.501 42.1914-15.8897C40.5475-14.2784 39.278-12.5857 38.3828-10.8116C37.4876-9.03748 37.04-7.45056 37.04-6.05083C37.04-4.52088 37.2841-3.47107 37.7724-2.90141C38.2607-2.33175 38.7164-2.04692 39.1396-2.04692ZM56.1806-26.1192C58.6546-26.1192 60.7298-27.0713 62.4062-28.9756C64.0826-30.8799 64.9209-33.2156 64.9209-35.9825C64.9209-38.6192 64.0664-40.8978 62.3574-42.8184C60.6484-44.739 58.5894-45.6993 56.1806-45.6993C53.6741-45.6993 51.5582-44.7309 49.833-42.794C48.1077-40.8571 47.2613-38.5866 47.2939-35.9825C47.3265-33.2156 48.181-30.8799 49.8574-28.9756C51.5338-27.0713 53.6416-26.1192 56.1806-26.1192Z"/>
  </g>
 </g>
</svg>
